<svg width="372" height="283" viewBox="0 0 372 283" fill="none" xmlns="http://www.w3.org/2000/svg">
<path d="M196.257 57.1307L196.886 57.3695C195.032 61.3463 194.727 66.7411 196.395 70.8181C197.915 74.5335 200.984 77.6828 204.857 79.2803C205.072 79.3683 205.289 79.451 205.508 79.5286C205.728 79.6065 205.949 79.6792 206.172 79.7467C206.395 79.8143 206.619 79.8765 206.846 79.9335C207.072 79.9907 207.299 80.0425 207.528 80.0888C207.757 80.1354 207.987 80.1766 208.218 80.2124C208.449 80.2481 208.681 80.2786 208.914 80.3037C209.146 80.3289 209.38 80.3486 209.613 80.3629C209.847 80.3772 210.081 80.386 210.315 80.3892C210.549 80.3926 210.783 80.3906 211.017 80.3832C211.251 80.3758 211.485 80.3629 211.718 80.3447C211.952 80.3264 212.184 80.3027 212.417 80.2735C212.649 80.2444 212.88 80.21 213.11 80.1702C213.34 80.1303 213.57 80.0851 213.798 80.0348C214.025 79.9842 214.252 79.9284 214.477 79.8675C214.702 79.8066 214.926 79.7404 215.147 79.6689C215.369 79.5976 215.589 79.5212 215.806 79.4396C216.017 79.3578 216.226 79.2709 216.433 79.179C216.64 79.0874 216.844 78.991 217.045 78.8898C217.247 78.7886 217.445 78.6828 217.641 78.5723C217.837 78.4619 218.03 78.347 218.221 78.2275C218.411 78.1078 218.597 77.9838 218.781 77.8557C218.964 77.7275 219.145 77.595 219.321 77.4584C219.498 77.322 219.671 77.1813 219.84 77.0364C220.01 76.8918 220.175 76.7434 220.337 76.5911C220.498 76.4385 220.656 76.2824 220.809 76.1227C220.963 75.963 221.112 75.7997 221.257 75.6328C221.402 75.4662 221.542 75.2963 221.678 75.1231C221.814 74.9499 221.946 74.7735 222.073 74.5939C222.2 74.4146 222.322 74.2324 222.439 74.0472C222.556 73.8621 222.669 73.6743 222.777 73.4839C222.884 73.2937 222.987 73.101 223.084 72.9058C223.182 72.7106 223.274 72.5133 223.361 72.3139C224.226 70.3743 224.641 68.3251 224.923 66.2473L225.465 66.3978C225.315 68.3338 225.045 70.2245 224.33 72.0552C222.938 75.6237 219.858 78.5489 216.217 80.1162C212.787 81.5925 208.97 81.6033 205.458 80.3518C201.423 78.914 197.796 75.7079 196.062 71.9706C193.854 67.2099 194.336 61.8942 196.257 57.1307Z" fill="#EEBD6F"/>
<path d="M14.8645 208.794C18.7717 208.525 22.8297 208.715 26.7546 208.713L111.765 208.672C112.568 208.677 113.547 208.576 114.292 208.888L114.341 209.355L39.0681 209.322C35.5976 209.324 16.2517 209.693 14.9913 209.264L14.8645 208.794Z" fill="black"/>
<path d="M15.0203 82.6676C20.3232 82.3033 25.8239 82.6029 31.1537 82.6025L62.2297 82.5329C94.9184 82.2752 127.607 82.2855 160.296 82.5639C160.861 82.5707 161.346 82.5429 161.859 82.7967L162.037 83.3466C148.97 83.0506 135.859 83.1678 122.786 83.1483L25.9259 83.229C23.5114 83.2302 17.2097 83.6024 15.1992 83.0462L15.0203 82.6676Z" fill="black"/>
<path d="M14.8477 145.424C18.0909 145.312 21.3883 145.447 24.6361 145.459L42.8325 145.478L101.553 145.381L128.969 145.372C132.195 145.37 138.3 144.976 141.159 145.523L141.44 146.026C138.656 146.571 134.249 146.168 131.268 146.161L109.272 146.132L46.6436 146.158C36.8648 146.154 27.0583 146.322 17.2837 146.167C16.5104 146.155 15.7679 146.195 15.035 145.938L14.8477 145.424Z" fill="black"/>
<path d="M224.923 66.2473C224.641 68.3251 224.226 70.3743 223.361 72.3139C223.274 72.5133 223.182 72.7106 223.084 72.9058C222.987 73.101 222.884 73.2937 222.777 73.4839C222.669 73.6743 222.556 73.8621 222.439 74.0472C222.322 74.2324 222.2 74.4146 222.073 74.5939C221.946 74.7735 221.814 74.9499 221.678 75.1231C221.542 75.2963 221.402 75.4662 221.257 75.6328C221.112 75.7997 220.963 75.963 220.809 76.1227C220.656 76.2824 220.498 76.4385 220.337 76.5911C220.175 76.7434 220.01 76.8918 219.84 77.0364C219.671 77.1813 219.498 77.322 219.321 77.4584C219.145 77.595 218.964 77.7275 218.781 77.8557C218.597 77.9838 218.411 78.1078 218.221 78.2275C218.03 78.347 217.837 78.4619 217.641 78.5723C217.445 78.6828 217.247 78.7886 217.045 78.8898C216.844 78.991 216.64 79.0874 216.433 79.179C216.226 79.2709 216.017 79.3578 215.806 79.4396C215.589 79.5212 215.369 79.5976 215.147 79.6689C214.926 79.7404 214.702 79.8066 214.477 79.8675C214.252 79.9284 214.025 79.9842 213.798 80.0348C213.57 80.0851 213.34 80.1303 213.11 80.1702C212.88 80.21 212.649 80.2444 212.417 80.2735C212.184 80.3027 211.952 80.3264 211.718 80.3447C211.485 80.3629 211.251 80.3758 211.017 80.3832C210.783 80.3906 210.549 80.3926 210.315 80.3892C210.081 80.386 209.847 80.3772 209.613 80.3629C209.38 80.3486 209.146 80.3289 208.914 80.3037C208.681 80.2786 208.449 80.2481 208.218 80.2124C207.987 80.1766 207.757 80.1354 207.528 80.0888C207.299 80.0425 207.072 79.9907 206.846 79.9335C206.619 79.8765 206.395 79.8143 206.172 79.7467C205.949 79.6792 205.728 79.6065 205.508 79.5286C205.289 79.451 205.072 79.3683 204.857 79.2803C200.984 77.6828 197.915 74.5335 196.395 70.8181C194.727 66.7411 195.032 61.3463 196.886 57.3695C206.217 60.3658 215.677 63.0257 224.923 66.2473Z" fill="#FEFEFE"/>
<path d="M17.2194 150.523L35.3641 150.531L35.3805 155.502L57.0431 155.468L57.0704 151L95.7959 150.985L95.8354 203.75L111.202 203.774C111.133 190.16 111.048 176.521 111.236 162.909L122.42 162.907C122.559 168.388 122.415 173.899 122.425 179.383C122.432 182.664 122.736 186.163 122.387 189.419C122.314 190.096 122.128 190.665 121.839 191.285C119.759 195.523 118.191 200.052 116.331 204.388C114.792 204.897 95.3666 204.543 92.3191 204.542L17.2005 204.492C17.3815 198.91 17.2643 193.303 17.2635 187.718L17.2194 150.523Z" fill="black"/>
<path d="M111.989 163.791C115.185 163.757 118.381 163.75 121.577 163.769L121.553 181.643C121.551 184.568 121.085 188.456 121.839 191.285C119.759 195.523 118.191 200.052 116.331 204.388C116.235 204.04 116.32 204.213 116.041 203.886C114.729 203.654 113.274 203.777 111.938 203.799L111.989 163.791Z" fill="#B2C5E3"/>
<path d="M18.0359 151.318L34.6422 151.327L34.5913 203.766L18.056 203.765L18.0359 151.318Z" fill="#CACBCB"/>
<path d="M90.69 151.814L95.013 151.829L95.0634 203.787L81.7314 203.781L77.2022 203.771L77.2076 151.855L90.69 151.814Z" fill="#CACBCB"/>
<path d="M57.8285 151.886L76.429 151.864C76.7523 169.146 76.4172 186.482 76.408 203.771L57.8735 203.762C57.6626 186.477 57.8558 169.174 57.8285 151.886Z" fill="#B2C5E3"/>
<path d="M35.4158 156.254L57.0725 156.261C57.1171 172.085 56.7886 187.933 57.0868 203.754L35.3843 203.757L35.4158 156.254Z" fill="#FEFEFE"/>
<path d="M51.3946 87.3429C62.01 87.1315 72.6666 87.3095 83.2862 87.3401L128.551 87.3338L128.583 91.3122L145.011 91.2808L145.069 102.457C148.327 102.42 151.585 102.43 154.842 102.487C155.067 105.447 155.378 114.25 154.342 116.859C153.632 115.56 154.015 105.441 154.021 103.329C151.045 103.288 148.068 103.294 145.092 103.345L145.18 137.886C144.505 138.932 143.964 139.893 143.535 141.052C137.799 141.522 131.216 141.144 125.391 141.131L16.5919 141.029C16.4945 127.871 16.371 114.66 16.6297 101.505C19.6146 101.405 22.6231 101.467 25.6109 101.46C25.7516 98.4372 25.695 95.384 25.7181 92.3575C30.1031 92.326 34.4879 92.3396 38.8724 92.3984C38.9921 95.3503 38.9211 98.3268 38.9278 101.282C43.0509 101.377 47.1946 101.297 51.3194 101.299C51.3727 96.6466 51.2724 91.9948 51.3946 87.3429Z" fill="black"/>
<path d="M17.4487 102.255L25.5597 102.247C25.4329 114.934 25.7462 127.629 25.5043 140.316L17.4756 140.306C17.245 127.634 17.4286 114.931 17.4487 102.255Z" fill="#CACBCB"/>
<path d="M38.8358 102.06L51.2761 102.065L51.3501 140.343L38.8194 140.309L38.8358 102.06Z" fill="#CACBCB"/>
<path d="M26.5072 93.1886C30.3338 93.0881 34.218 93.0996 38.0437 93.2216L37.9874 140.348L26.4047 140.34C26.3289 124.622 26.363 108.905 26.5072 93.1886Z" fill="#FEFEFE"/>
<path d="M87.5824 88.1704L101.039 88.1538L100.996 140.358L87.5618 140.349C87.8554 122.975 87.5723 105.55 87.5824 88.1704Z" fill="#CACBCB"/>
<path d="M131.154 92.0222L144.162 92.0043C144.138 98.1162 144.831 137.092 143.682 139.992C143.161 140.409 142.594 140.346 141.949 140.361L128.465 140.364L128.517 92.0698L131.154 92.0222Z" fill="#B2C5E3"/>
<path d="M52.0775 88.1498C57.3606 87.9936 62.6971 88.0723 67.9836 88.1363L68.0118 140.34L52.1682 140.33C51.9078 134.105 52.0645 127.803 52.0649 121.57L52.0775 88.1498Z" fill="#CACBCB"/>
<path d="M68.7598 88.1371C74.7854 88.1138 80.8109 88.119 86.8365 88.1529C86.6391 105.533 87.1372 122.929 86.7949 140.307C80.7868 140.388 74.7704 140.339 68.7611 140.349L68.7598 88.1371Z" fill="#CACBCB"/>
<path d="M101.794 88.1597L127.662 88.1351C127.516 105.535 127.497 122.934 127.604 140.333L101.804 140.34L101.794 88.1597Z" fill="#FEFEFE"/>
<path d="M129.347 23.8991C140.184 23.7235 151.026 23.9408 161.866 23.7628L161.875 78.4758L65.1797 78.4162C49.0905 78.4404 32.9265 78.8111 16.8452 78.5223C16.5008 71.8868 16.7675 65.1078 16.7578 58.456C16.7419 46.9466 16.6579 35.4292 16.7998 23.9209L32.0176 23.8852L49.8545 23.8176C49.7833 27.0166 49.7784 30.2157 49.8398 33.4149L61.8328 33.4022C61.8297 30.2385 61.8438 27.0749 61.8752 23.9114C73.1264 23.8073 84.3774 23.8183 95.6283 23.9444L95.5766 33.4133L129.329 33.3724L129.347 23.8991Z" fill="black"/>
<path d="M112.77 34.2183L115.673 34.2214L115.636 77.6475L106.877 77.6284L106.885 34.2651L112.77 34.2183Z" fill="#CACBCB"/>
<path d="M96.0084 34.2131L106.081 34.2055L106.052 62.1182C106.067 66.8249 106.336 71.6563 106.126 76.3507C106.101 76.9077 106.161 77.1894 105.757 77.6073L95.5653 77.624L95.5182 46.5497C95.5107 43.9248 95.136 36.517 95.6119 34.4062L96.0084 34.2131Z" fill="#FEFEFE"/>
<path d="M49.9065 34.2731L61.8273 34.2584L61.7572 77.5827C57.8277 77.7921 53.8079 77.6332 49.8679 77.6367L49.9065 34.2731Z" fill="#FEFEFE"/>
<path d="M116.546 34.2083C120.755 33.9926 125.086 34.1523 129.305 34.1837L129.186 77.6693L116.476 77.6387C116.541 63.1786 116.137 48.6581 116.546 34.2083Z" fill="#FEFEFE"/>
<path d="M17.5978 24.6309L32.5564 24.6265C32.6603 42.3029 32.655 59.9794 32.5405 77.6558L17.6503 77.6574C17.4319 59.9896 17.5609 42.3003 17.5978 24.6309Z" fill="#CACBCB"/>
<path d="M146.092 24.5987L161.015 24.6047L161.068 60.4008C161.063 66.0828 161.431 72.0024 160.97 77.6594L145.967 77.6693C145.823 70.7652 146.005 63.8468 146.041 56.942L146.092 24.5987Z" fill="#CACBCB"/>
<path d="M130.088 24.6078L145.243 24.5963L145.133 77.6685L129.968 77.6808L130.088 24.6078Z" fill="#9FB5DB"/>
<path d="M79.1531 24.5872L94.7194 24.609L94.7249 77.6296L79.1657 77.6391L79.1531 24.5872Z" fill="#CACBCB"/>
<path d="M33.4216 24.6579L49.0304 24.6003C49.1662 42.2886 49.1697 59.977 49.0409 77.6653L33.3666 77.6971L33.4216 24.6579Z" fill="#9FB5DB"/>
<path d="M62.7412 24.6821L78.3408 24.646L78.3609 77.632L62.5489 77.63L62.6606 42.3933C62.6816 36.5567 62.2944 30.4921 62.7412 24.6821Z" fill="#CACBCB"/>
<path d="M179.384 51.8444C183.726 45.332 188.091 39.5749 195.326 35.6715C197.203 34.6592 199.214 33.7606 201.29 33.1845C206.836 31.6462 209.443 31.6486 213.029 26.81C216.627 21.9543 219.124 13.2076 221.129 7.39173C221.778 5.50739 222.326 3.11253 223.465 1.45743C223.959 0.739927 224.84 0.211933 225.723 0.050237C226.537 -0.098349 227.437 0.110226 228.219 0.317214C229.573 0.675965 240.011 4.30996 240.771 4.82723C241.562 5.36516 242.023 6.20423 242.165 7.10489C242.627 10.0389 237.191 22.5916 236.068 26.4846C240.718 30.3252 246.708 32.9219 252.674 34.3907C253.916 33.2624 255.029 32.2004 256.609 31.4992L256.867 31.593C256.267 32.8941 254.763 33.8408 253.617 34.6946C256.105 37.7998 258.284 41.1486 260.545 44.4043L271.614 60.3582L310.213 116.2L321.906 132.789C324.613 136.623 327.264 140.535 330.165 144.24C332.295 143.017 334.446 142.053 337.007 142.687C339 143.18 340.543 144.509 341.543 146.181C343.04 148.686 343.369 151.915 342.543 154.682C341.876 156.914 340.405 158.851 338.237 159.975C337.322 160.45 336.321 160.61 335.314 160.816C335.261 173.824 335.281 186.831 335.373 199.838C335.966 200.737 335.593 211.564 335.586 213.406C345.626 223.554 355.467 236.587 354.944 251.14C354.871 253.165 354.638 255.184 354.563 257.209C355.421 257.636 356.266 258.129 356.985 258.749C358.976 260.463 359.398 262.467 359.482 264.892C361.598 264.911 370.827 264.469 372 265.343C371.508 265.712 370.763 265.714 370.156 265.744C367.018 265.9 363.787 265.743 360.638 265.738L277.845 265.671L254.904 265.688C251.108 265.704 247.267 265.619 243.476 265.779C241.259 265.873 239.03 266.17 236.826 266.413C237.293 267.122 237.776 267.857 237.994 268.674C238.699 271.312 239.019 278.811 237.426 281.059C236.865 281.851 236.253 282.269 235.262 282.44C232.444 282.927 206.461 283.156 205.372 282.379C204.022 281.417 203.928 279.376 203.694 277.923C202.859 279.52 202.334 281.195 201.882 282.919C197.258 282.853 192.634 282.848 188.01 282.903C185.969 282.914 183.68 283.151 181.677 282.841C179.955 282.575 179.166 281.052 178.243 279.808C177.549 280.347 176.796 281.022 175.914 281.267C174.756 281.588 173.451 281.142 172.261 281.277C170.505 281.476 168.95 282.32 167.132 282.443C163.174 282.713 159.113 282.527 155.141 282.556C151.503 282.582 147.606 282.88 143.993 282.494C143.069 282.395 142.127 282.312 141.419 281.688C139.452 279.954 139.921 277.165 139.861 274.888C139.832 273.792 139.717 272.698 139.689 271.602C139.639 269.628 139.988 268.635 141.419 267.211C139.894 266.6 138.204 265.762 136.535 265.626C133.212 265.355 129.635 265.681 126.274 265.678L100.059 265.739L23.1594 265.836L9.00845 265.83C6.61581 265.831 4.08419 266.008 1.71146 265.804C1.18428 265.759 0.832322 265.708 0.449243 265.348C1.42569 264.465 14.0581 264.922 16.3664 264.938L16.5323 226.609L23.6466 226.579C23.7722 224.131 23.6357 221.686 23.8365 219.236C28.259 219.193 32.6815 219.198 37.1038 219.251C37.4326 234.447 37.2256 249.691 37.2692 264.893L46.1576 264.888L46.1383 236.392C46.1299 231.176 45.8594 225.835 46.2379 220.636C48.8486 220.564 61.4577 220.965 62.7223 220.549C63.3481 220.342 62.9937 219.703 63.3763 219.201C67.2264 218.788 71.4658 219.162 75.3533 219.167L75.3701 223.479C79.814 223.427 84.258 223.415 88.7021 223.445L88.7609 219.094C93.7438 219.423 98.8081 219.149 103.807 219.255C103.597 222.917 104.316 235.516 103.161 237.894C101.182 242.953 99.0437 248.041 96.8379 253.015C95.1612 256.796 92.9928 260.676 92.0264 264.673L104.975 264.658C107.305 264.653 109.886 264.456 112.182 264.777C115.736 264.945 119.339 264.825 122.897 264.814C127.023 264.8 131.194 264.882 135.315 264.71C131.294 262.99 128.502 260.565 126.914 256.6C125.143 252.177 125.508 247.351 127.614 243.088C129.432 239.408 132.688 236.34 136.771 234.976C143.061 232.875 146.642 235.336 152.369 237.158C151.392 236.508 148.102 234.819 148.012 233.717C147.889 232.227 150.327 229.903 151.467 228.97C152.129 228.428 152.848 227.978 153.611 227.576C153.632 221.601 153.786 215.591 153.645 209.62C153.52 204.371 152.674 199.058 153.496 193.809C154.328 188.489 157.955 186.953 159.721 182.532C160.982 179.372 161.815 175.998 162.811 172.751C164.326 167.808 165.909 162.891 167.379 157.934C168.504 154.138 169.503 150.162 171.222 146.561C172.197 144.516 173.458 142.578 175.141 140.984C175.323 140.811 175.51 140.643 175.701 140.479C175.892 140.315 176.087 140.156 176.286 140.001C176.486 139.846 176.689 139.697 176.896 139.551C177.103 139.406 177.314 139.266 177.529 139.131C177.744 138.995 177.961 138.865 178.183 138.74C178.404 138.615 178.629 138.495 178.856 138.381C179.084 138.266 179.314 138.157 179.548 138.053C179.781 137.949 180.017 137.851 180.256 137.758C180.494 137.665 180.735 137.578 180.978 137.497C181.221 137.415 181.466 137.34 181.713 137.27C181.96 137.2 182.209 137.136 182.459 137.077C182.71 137.019 182.961 136.966 183.215 136.92C183.468 136.874 183.722 136.833 183.977 136.798C184.232 136.763 184.488 136.735 184.745 136.712C185.002 136.69 185.259 136.673 185.517 136.662C185.774 136.652 186.032 136.647 186.29 136.649C186.531 136.647 186.773 136.65 187.014 136.66C187.256 136.669 187.497 136.684 187.738 136.704C187.978 136.725 188.218 136.751 188.457 136.783C188.697 136.814 188.935 136.852 189.173 136.895C189.41 136.938 189.646 136.987 189.881 137.041C190.115 137.095 190.348 137.155 190.58 137.22C190.812 137.285 191.042 137.356 191.27 137.431C191.498 137.507 191.723 137.589 191.947 137.675C192.17 137.762 192.392 137.854 192.611 137.951C192.829 138.048 193.045 138.15 193.259 138.257C193.472 138.364 193.683 138.476 193.89 138.594C194.098 138.711 194.302 138.832 194.504 138.959C194.705 139.086 194.902 139.217 195.097 139.353C195.291 139.489 195.481 139.63 195.668 139.775C195.855 139.92 196.038 140.069 196.217 140.222C196.396 140.376 196.571 140.534 196.741 140.696C198.564 142.44 199.894 144.651 200.885 146.901C203.165 152.081 204.347 157.869 205.877 163.29C207.67 169.646 209.684 175.937 211.39 182.318C216.765 185.015 220.572 188.367 222.365 194.017C223.234 196.753 223.378 199.514 223.382 202.354C223.385 204.885 222.911 207.329 222.778 209.842C222.639 212.472 222.461 226.082 223.087 227.732C223.192 228.01 223.526 228.198 223.802 228.322C224.008 228.414 224.228 228.477 224.44 228.559C226.593 229.386 228.742 233.194 229.608 235.193C229.652 235.296 229.694 235.398 229.737 235.501C234.631 234.174 240.855 234.533 245.352 236.916C248.882 238.786 251.877 242.23 252.937 245.941C254.129 250.116 253.097 254.752 250.802 258.426C249.124 261.115 246.779 263.112 244.084 264.869C251.634 264.632 259.237 264.781 266.793 264.777C276.594 264.772 286.41 264.671 296.209 264.795C295.559 261.993 294.566 259.175 293.786 256.394C291.573 248.416 289.228 240.474 286.751 232.566L274.257 190.555L239.206 70.8292C234.759 69.0895 229.983 68.0021 225.465 66.3978L224.923 66.2473C215.677 63.0257 206.217 60.3658 196.886 57.3695L196.257 57.1307C190.605 55.4517 185.032 53.5404 179.384 51.8444Z" fill="black"/>
<path d="M172.983 278.148C174.093 278.463 176.12 278.83 176.884 279.654L176.693 280.084C176.119 280.325 175.558 280.451 174.933 280.532C174.182 280.629 173.889 280.49 173.294 280.067C172.885 279.449 172.969 278.846 172.983 278.148Z" fill="#FEFEFE"/>
<path d="M192.387 211.231C194.639 209.368 203.797 203.436 206.826 203.505C208.277 204.385 208.953 206.745 209.756 208.14C204.069 209.529 198.531 211.688 192.825 212.884C192.302 212.825 191.902 212.771 191.41 212.575C191.391 212.037 192.009 211.626 192.387 211.231Z" fill="#FEFEFE"/>
<path d="M170.031 203.141C170.984 203.415 171.899 203.803 172.795 204.211C175.468 205.427 184.827 210.027 185.687 212.338C185.186 212.671 184.822 212.603 184.219 212.63C181.719 212.267 179.312 211.499 176.876 210.874C173.784 210.081 170.672 209.351 167.619 208.427C168.368 206.572 168.572 204.667 170.031 203.141Z" fill="#FEFEFE"/>
<path d="M204.179 240.108C204.816 240.091 205.351 240.09 205.936 240.374C207.675 241.218 208.348 242.888 208.871 244.555C204.296 246.449 199.621 248.06 194.917 249.637L191.348 250.853C193.772 246.151 199.166 242.128 204.179 240.108Z" fill="#FEFEFE"/>
<path d="M172.739 239.903C173.915 239.871 174.789 240.002 175.89 240.391C181.119 242.235 185.147 246.513 187.366 251.237L185.303 250.472C182.035 249.19 172.903 246.167 170.459 244.533C170.275 244.125 170.175 243.887 170.185 243.431C170.214 242.042 171.72 240.75 172.739 239.903Z" fill="#FEFEFE"/>
<path d="M222.631 228.746C222.909 228.784 223.183 228.815 223.447 228.912C225.814 229.787 227.95 233.702 228.894 235.757C223.84 237.806 218.888 240.175 213.914 242.396C212.374 243.107 210.848 243.818 209.242 244.389C211.135 240.959 219.387 230.805 222.631 228.746Z" fill="#FEFEFE"/>
<path d="M153.956 228.368C154.209 228.377 154.548 228.372 154.795 228.454C157.303 229.283 168.081 241.593 169.646 244.306C168.283 243.895 166.958 243.384 165.627 242.891C162.4 241.688 158.997 240.283 156.031 238.584C153.65 237.218 151.446 235.583 149.064 234.2C149.931 231.495 151.381 229.768 153.956 228.368Z" fill="#FEFEFE"/>
<path d="M334.95 143.227C336.126 143.3 337.116 143.475 338.147 144.046C340.112 145.133 341.361 147.048 341.901 149.106C342.567 151.645 342.163 154.516 340.652 156.728C339.386 158.582 337.761 159.436 335.518 159.857C333.956 159.837 332.753 159.66 331.455 158.783C329.596 157.526 328.572 155.373 328.235 153.286C327.826 150.753 328.386 148.109 330.008 146.032C331.287 144.394 332.851 143.556 334.95 143.227Z" fill="#FEFEFE"/>
<path d="M194.948 177.55C194.967 177.575 194.989 177.597 195.006 177.623C196.251 179.478 196.059 186.477 195.465 188.679C194.923 190.692 193.561 192.575 191.642 193.618C189.351 194.864 185.478 194.85 182.967 194.187C180.438 193.519 178.874 191.984 177.605 189.901C176.387 186.599 176.884 181.671 177.19 178.202C178.354 179.368 179.521 180.65 180.87 181.626C182.773 183.003 184.87 183.847 187.303 183.488C190.911 182.954 192.987 180.156 194.948 177.55Z" fill="#FEFEFE"/>
<path d="M188.501 213.326C189.425 213.436 190.352 213.565 191.28 213.637L191.567 213.731C191.661 213.849 191.806 213.942 191.848 214.084C192.173 215.187 191.858 219.391 191.858 220.816L191.867 237.169C191.871 240.639 191.769 244.143 192.034 247.604C191.657 248.174 191.284 248.743 190.919 249.32C190.417 250.115 190.005 250.788 188.999 251.029C187.662 250.546 186.177 247.293 185.357 246.026C185.71 243.047 185.603 240.001 185.602 237.005L185.59 222.338C185.586 219.393 185.468 216.394 185.704 213.458C186.631 213.359 187.569 213.354 188.501 213.326Z" fill="#9FB5DB"/>
<path d="M17.345 227.468C19.4538 227.42 21.5697 227.446 23.6794 227.439L23.7709 253.096C23.7789 256.458 24.1704 261.852 23.6395 264.941L17.206 264.938L17.2177 241.72C17.2165 236.978 17.1148 232.206 17.345 227.468Z" fill="#9FB5DB"/>
<path d="M211.16 206.928C214.704 206.886 218.252 206.932 221.796 206.94C221.585 213.901 221.654 221.003 221.977 227.956C219.934 229.502 218.354 231.53 216.704 233.433C215.054 235.294 213.43 237.095 211.96 239.093L211.977 219.677C211.991 216.234 212.292 212.515 211.878 209.107C211.782 208.318 211.501 207.649 211.16 206.928Z" fill="#FEFEFE"/>
<path d="M154.546 206.906C156.669 206.847 164.629 206.525 166.178 207.111L166.242 207.442C165.948 207.969 165.578 208.566 165.528 209.167C165.288 212.014 165.59 215.137 165.597 218.016C165.61 224.154 165.542 230.252 165.401 236.387L165.381 236.915L165.189 237.045C162.786 234.563 157.643 228.492 154.524 227.508L154.546 206.906Z" fill="#FEFEFE"/>
<path d="M142.425 267.636C146.161 267.949 153.209 271.079 157.034 272.456C162.056 274.265 167.114 275.953 172.097 277.862C172.157 278.654 172.275 279.442 172.377 280.231L170.282 280.867C166.394 282.199 150.793 281.764 145.755 281.678C144.588 281.658 142.757 281.698 141.925 280.845C140.235 279.113 140.924 276.249 140.83 274.12C140.775 272.885 140.569 271.614 140.691 270.38C140.831 268.98 141.301 268.509 142.425 267.636Z" fill="#FEFEFE"/>
<path d="M317.054 257.881C317.641 257.868 318.228 257.86 318.814 257.857L341.998 257.861C345.717 257.869 349.985 257.508 353.626 258.084C354.776 258.266 355.894 258.894 356.697 259.685C358.217 261.181 358.468 262.839 358.465 264.806L351.58 264.799L309.967 264.801C310.252 263.174 310.648 261.745 311.76 260.43C313.095 258.849 314.98 258.119 317.054 257.881Z" fill="#CACBCB"/>
<path d="M89.4808 219.978C93.9445 219.832 98.4389 219.932 102.906 219.933C102.885 222.859 102.294 235.955 103.161 237.894C101.182 242.953 99.0437 248.041 96.8379 253.015C95.1612 256.796 92.9928 260.676 92.0264 264.673L104.975 264.658C107.305 264.653 109.886 264.456 112.182 264.777C109.728 265.009 107.119 264.867 104.649 264.882L89.4678 264.908C89.7063 259.221 89.5392 253.47 89.5253 247.777L89.4808 219.978Z" fill="#CACBCB"/>
<path d="M63.9811 219.868C67.5229 219.938 71.0727 219.898 74.6158 219.901L74.4961 264.856C71.0072 264.984 67.5015 264.918 64.0096 264.911L63.9811 219.868Z" fill="#FEFEFE"/>
<path d="M210.107 266.193C213.535 266.056 234.123 265.699 235.752 266.868C236.852 267.656 237.319 269.056 237.418 270.299C237.6 272.614 238.063 279.074 236.399 280.673C235.124 281.9 233.38 281.807 231.703 281.827C227.683 281.834 208.426 282.391 206.059 281.67C204.807 280.384 204.695 278.062 204.267 276.391C205.5 273.349 206.786 269.633 208.687 266.931C209.125 266.309 209.382 266.317 210.107 266.193Z" fill="#FEFEFE"/>
<path d="M176.43 156.29C183.26 155.998 190.279 156.199 197.119 156.302C197.455 158.328 197.868 160.347 198.126 162.383C198.794 167.648 195.511 175.436 192.097 179.554C190.701 180.933 189.197 182.149 187.134 182.475C185.252 182.772 183.477 182.277 181.948 181.221C177.584 178.206 174.46 171.057 173.597 166.171C172.898 162.216 174.036 159.458 176.43 156.29Z" fill="#FEFEFE"/>
<path d="M166.592 209.061C172.303 210.835 178.536 212.708 184.478 213.561C184.46 223.984 184.574 234.427 184.372 244.847C183.699 244.181 182.968 243.586 182.235 242.98C180.296 241.724 178.298 240.248 176.096 239.439C174.892 238.997 173.538 238.777 172.325 239.307C170.86 239.948 170.277 241.246 169.719 242.577C168.807 241.294 167.684 240.104 166.659 238.899C166.445 228.977 166.411 218.984 166.592 209.061Z" fill="#C27958"/>
<path d="M24.5589 219.947L36.3444 219.934C36.7014 234.903 36.336 249.949 36.3515 264.927L24.55 264.923C24.4257 258.66 24.5526 252.376 24.5656 246.111L24.5589 219.947Z" fill="#FEFEFE"/>
<path d="M210.267 208.918C210.565 208.886 210.387 208.876 210.782 209.053C211.17 210.084 210.922 237.039 210.852 240.12L209.094 242.539C208.849 242.135 208.581 241.744 208.289 241.368C207.474 240.314 206.581 239.417 205.138 239.247C202.063 238.885 198.075 242.553 195.804 244.322C194.884 245.067 194.041 245.902 193.18 246.708C193.084 235.761 193.088 224.813 193.189 213.867C195.488 213.378 197.78 212.608 200.038 211.96C203.457 210.98 206.901 210.049 210.267 208.918Z" fill="#C27958"/>
<path d="M76.93 224.323L88.7403 224.277L88.7487 250.652C88.7445 255.265 88.9348 259.971 88.6773 264.574C88.2389 264.985 87.952 264.876 87.3489 264.893L75.3546 264.861L75.3626 239.238C75.3659 234.351 75.2614 229.443 75.4277 224.56C75.9044 224.264 76.3702 224.343 76.93 224.323Z" fill="#CACBCB"/>
<path d="M335.373 199.838C335.966 200.737 335.593 211.564 335.586 213.406C345.626 223.554 355.467 236.587 354.944 251.14C354.871 253.165 354.638 255.184 354.563 257.209C351.93 256.57 339.092 257.017 335.408 257.015L335.373 199.838Z" fill="#CACBCB"/>
<path d="M47.009 221.401C52.3891 221.321 57.7798 221.375 63.1608 221.364L63.2335 264.928L47.077 264.887L47.009 221.401Z" fill="#CACBCB"/>
<path d="M176.534 278.345C176.236 277.438 172.003 276.673 170.983 275.96C172.288 274.496 172.843 272.798 173.699 271.104C175.681 267.185 177.54 263.275 179.437 259.322C180.218 257.693 181.287 256.177 182.022 254.539C182.522 253.42 182.511 252.198 183.092 251.106C184.885 250.891 189.448 254.5 191.739 254.706C191.858 254.717 191.977 254.721 192.097 254.729C195.182 255.917 198.179 257.568 201.154 258.995C203.993 260.357 206.996 261.603 209.749 263.104C206.56 266.872 202.577 277.195 200.999 282.025C198.463 282.031 181.608 282.412 180.791 281.624C180.177 281.032 179.861 280.186 179.519 279.435C178.524 279.083 177.501 278.76 176.534 278.345Z" fill="#CACBCB"/>
<path d="M184.09 137.677C187.331 137.526 190.189 137.709 193.072 139.243C195.948 140.773 198.064 143.365 199.514 146.123C202.157 151.153 203.712 158.905 205.273 164.523C206.958 170.407 208.708 176.275 210.523 182.125C206.049 180.364 201.164 179.28 196.489 178.081C196.342 173.983 197.298 172.405 198.478 168.616C199.495 165.349 199.301 162.227 198.822 158.894C198.681 157.909 198.636 156.785 198.124 155.904C196.534 154.858 186.174 155.347 183.738 155.361C181.15 155.365 178.56 155.396 175.974 155.276C175.1 156.257 174.356 157.512 173.76 158.661C170.241 165.449 174.772 171.682 177.099 177.993C171.289 179.805 165.649 180.714 160.179 183.542C162.705 176.975 164.647 170.142 166.673 163.424C168.54 157.233 170.251 148.569 174.16 143.401C176.533 140.264 180.097 138.31 184.09 137.677Z" fill="#627BB3"/>
<path d="M232.951 235.588C235.311 235.313 238.054 235.642 240.367 236.11C244.54 236.954 248.054 239.12 250.382 242.54C252.509 245.663 252.858 249.32 252.005 252.886C250.971 257.214 248.492 260.993 244.458 263.35C242.803 264.318 240.999 264.908 239.074 265.168C234.772 265.75 230.022 265.338 225.67 265.338C222.259 265.338 214.255 265.772 211.233 265.093L211.958 263.815L211.996 263.269C210.935 262.146 193.37 254.39 189.869 252.366C196.466 249.797 203.323 247.793 209.916 245.169C215.051 243.125 220.05 240.586 225.127 238.395C227.676 237.294 230.177 236.075 232.951 235.588Z" fill="#627BB3"/>
<path d="M196.757 179.333C199.328 179.627 201.726 180.358 204.196 181.058C209.192 182.472 213.488 183.58 217.232 187.257C222.687 192.616 222.5 199.033 222.395 205.988C218.179 205.996 213.864 205.82 209.66 206.078C209.211 205.124 208.772 203.914 208.007 203.152C207.616 202.763 207.232 202.545 206.65 202.546C203.568 202.555 194.026 208.589 191.861 210.645L190.373 211.753C189.527 211.769 188.641 211.735 187.808 211.884C187.454 211.917 187.105 211.964 186.753 212.016C185.716 211.077 184.689 210.093 183.596 209.214C181.55 207.565 172.346 202.2 169.585 202.425C168.338 203.147 167.864 204.857 167.339 206.081C162.968 206.017 158.598 205.999 154.227 206.026C154.056 200.205 153.232 193.187 156.832 188.104C160.796 182.504 169.435 180.559 176.036 179.303C176.041 183.772 175.086 189.477 178.667 192.973C180.703 194.96 183.342 195.409 186.14 195.469C188.987 195.53 191.79 195.266 193.909 193.243C197.647 189.677 196.802 183.932 196.757 179.333Z" fill="#FEFEFE"/>
<path d="M176.534 278.345C173.791 277.731 171.024 276.457 168.399 275.493L153.897 270.29C150.703 269.125 147.489 268.012 144.255 266.951C140.827 265.824 137.194 264.79 134.034 263.083C130.482 261.164 128.194 258.134 127.158 254.41C126.039 250.385 126.839 245.948 129.051 242.375C131.109 239.05 134.354 236.425 138.337 235.45C138.603 235.383 138.871 235.325 139.141 235.275C139.411 235.225 139.683 235.183 139.956 235.15C140.229 235.117 140.503 235.093 140.778 235.077C141.053 235.061 141.328 235.053 141.604 235.054C141.879 235.056 142.154 235.066 142.429 235.084C142.703 235.102 142.977 235.129 143.25 235.165C143.523 235.2 143.794 235.244 144.064 235.297C144.334 235.349 144.601 235.41 144.867 235.479C150.862 237.038 158.245 240.953 164.151 243.334C173.39 247.059 183.454 249.839 192.097 254.729C191.977 254.721 191.858 254.717 191.739 254.706C189.448 254.5 184.885 250.891 183.092 251.106C182.511 252.198 182.522 253.42 182.022 254.539C181.287 256.177 180.218 257.693 179.437 259.322C177.54 263.275 175.681 267.185 173.699 271.104C172.843 272.798 172.288 274.496 170.983 275.96C172.003 276.673 176.236 277.438 176.534 278.345Z" fill="url(#paint0_linear_408_2508)"/>
<path d="M225.685 0.915925C225.798 0.909966 225.911 0.900832 226.024 0.897654C228.042 0.836869 239.674 5.05051 241.175 6.46486C242.019 8.7016 237.026 20.6147 236.015 23.6798C235.337 25.7295 234.811 27.8137 234.437 29.9323C233.692 34.3049 233.944 39.4132 236.499 43.2605C237.6 44.9188 239.007 46.4003 240.205 47.997C245.329 54.8248 245.976 63.558 244.494 71.5848C235.414 68.5102 226.203 65.643 217.06 62.7344C204.956 59.1371 192.923 55.3359 180.962 51.3307C185.251 43.7508 192.045 37.2086 200.738 34.3204C205.817 32.6327 209.078 32.7995 212.866 28.4909C217.077 23.7024 219.777 14.0129 221.922 7.91774C222.569 6.08227 223.104 3.96393 224.109 2.27942C224.499 1.62549 225.017 1.29613 225.685 0.915925Z" fill="#CACBCB"/>
<path d="M291.037 90.133C298.899 101.605 306.866 113.012 314.937 124.354C319.754 131.197 324.23 138.389 329.682 144.804C327.72 147.571 326.626 150.43 327.378 153.809C327.915 156.22 329.235 158.45 331.465 159.802C332.377 160.355 333.419 160.628 334.453 160.902L334.477 192.899C334.511 199.252 334.794 205.704 334.503 212.049C334.291 211.926 334.249 211.909 334.027 211.739C331.748 210.001 329.613 207.739 327.467 205.834C307.37 187.988 294.424 166.367 290.654 140.367C290.08 136.313 289.728 132.241 289.599 128.152C289.412 123.407 289.2 92.4194 291.037 90.133Z" fill="#FEFEFE"/>
<path d="M235.793 27.3463C239.981 31.1063 247.451 34.4252 253.152 35.4848C254.586 37.1876 255.768 39.1196 257.017 40.9499C259.194 44.1756 261.402 47.3827 263.639 50.571C272.897 63.6808 282.03 76.8681 291.037 90.133C289.2 92.4194 289.412 123.407 289.599 128.152C289.728 132.241 290.08 136.313 290.654 140.367C294.424 166.367 307.37 187.988 327.467 205.834C329.613 207.739 331.748 210.001 334.027 211.739C334.249 211.909 334.291 211.926 334.503 212.049L334.467 257.022L323.588 257.001C320.974 256.994 318.014 256.694 315.468 257.289C315.104 257.372 314.747 257.478 314.397 257.606C314.047 257.734 313.707 257.883 313.378 258.053C313.049 258.224 312.733 258.414 312.43 258.624C312.127 258.833 311.841 259.061 311.57 259.307C309.88 260.86 309.344 262.697 309.188 264.857L296.209 264.795C295.559 261.993 294.566 259.175 293.786 256.394C291.573 248.416 289.228 240.474 286.751 232.566L274.257 190.555L239.206 70.8292C241.225 71.4764 243.323 72.0501 245.291 72.8172C246.709 62.8604 246.375 54.1069 239.694 45.8258C235.44 40.553 234.252 37.0966 235.202 30.3606C235.345 29.3483 235.569 28.3451 235.793 27.3463Z" fill="#CACBCB"/>
<defs>
<linearGradient id="paint0_linear_408_2508" x1="15.3595" y1="47.807" x2="293.836" y2="181.434" gradientUnits="userSpaceOnUse">
<stop stop-color="#6879BE"/>
<stop offset="1" stop-color="#B2BAD3"/>
</linearGradient>
</defs>
</svg>
