<?xml version='1.0' encoding='utf-8'?>
<svg xmlns="http://www.w3.org/2000/svg" data-name="Layer 1" viewBox="0 0 500 500"> <defs> <style>.cls-1{fill:#fad34b;}</style> </defs> <path class="cls-1" d="M270.56,39c6.61,0,13.27-.47,19.82.16a34.15,34.15,0,0,1,13.4,3.79c8,4.56,8.11,11.32.59,16.69a54.88,54.88,0,0,1-11.28,5.86C237.23,88,205.26,130,192.56,188c-7.27,33.19-5.38,65.91,7.33,97.21,15.2,37.4,41.86,64.13,79.17,80.74a206.07,206.07,0,0,0,82.35,17.88c26.65.26,52.37-6.72,74-24.12a58.54,58.54,0,0,1,9.16-6.6c7.8-4.11,13.18-.74,12.55,8.16-.28,4.07-1.95,8.22-3.73,12-15.68,33.42-40.67,58.81-70.26,79.95-33,23.6-70.12,36-110.49,39.87-46.84,4.5-90-7.52-130.37-29.42-42.75-23.22-73.89-58.45-93.51-103-10.68-24.27-17.54-49.81-17.06-76.81.43-24-1.89-48.2,4.51-71.83Q67.13,97.78,177.9,56.21C207.63,45.1,238.48,38.23,270.56,39Z"/> </svg>