<svg xmlns="http://www.w3.org/2000/svg" viewBox="0 0 500 500"><g id="freepik--background-complete--inject-40"><rect x="67.77" y="376.37" width="35.16" height="11.19" style="fill:#ebebeb"></rect><rect x="247.11" y="102.95" width="35.16" height="11.19" style="fill:#ebebeb"></rect><path d="M83.32,401.67c-5.86.1-20.63.35-26.29.42l-8.87,0h-.45v-.46l0-11.19V390h.5l17.58.07c4.37,0,13.2.14,17.58.2h.24v.23l-.23,11.19Zm0,0-.24-11.19.24.24c-4.39.06-13.2.16-17.58.2L48.16,391l.5-.5,0,11.19-.46-.45,8.71,0c5.57.07,20.68.32,26.45.41Z" style="fill:#ebebeb"></path><path d="M402.1,261.19c-5.86.1-20.63.35-26.29.41l-8.87,0h-.45v-.46L366.44,250v-.5h.5l17.58.07c4.38,0,13.21.13,17.58.19h.24V250l-.24,11.19Zm0,0L401.86,250l.24.24c-4.38.06-13.19.15-17.58.19l-17.58.07.5-.5,0,11.19-.46-.46,8.72,0c5.57.06,20.68.31,26.44.41Z" style="fill:#ebebeb"></path><path d="M382.49,275.3c-5.86.1-20.63.35-26.29.41l-8.87.05h-.45v-.46l-.05-11.19v-.5h.5l17.58.07c4.38,0,13.2.13,17.58.19h.24v.23l-.24,11.19Zm0,0-.24-11.19.24.24c-4.39.06-13.19.15-17.58.19l-17.58.07.5-.5,0,11.19-.46-.46,8.71.05c5.58.06,20.69.31,26.45.41Z" style="fill:#ebebeb"></path><rect x="327.8" y="250" width="35.16" height="11.19" style="fill:#ebebeb"></rect><rect x="416.68" y="390.48" width="35.16" height="11.19" style="fill:#ebebeb"></rect><rect x="397.07" y="44.93" width="35.16" height="11.19" style="fill:#ebebeb"></rect><path d="M451.84,70.23c-5.86.1-20.63.35-26.29.42l-8.87,0h-.45v-.46L416.18,59v-.5h.5l17.58.07c4.38,0,13.2.13,17.58.2h.24V59l-.24,11.19Zm0,0L451.6,59l.24.24c-4.39.06-13.19.16-17.58.19l-17.58.07.5-.5,0,11.19-.46-.45,8.71,0c5.58.06,20.69.32,26.45.41Z" style="fill:#ebebeb"></path><path d="M102.93,56.12c-5.86.1-20.63.35-26.29.42l-8.87,0h-.45v-.46l0-11.19v-.5h.5l17.58.07c4.38,0,13.2.13,17.58.2h.24v.23l-.24,11.19Zm0,0-.24-11.19.24.24c-4.39.06-13.2.16-17.58.19l-17.58.07.5-.5,0,11.19-.46-.45,8.71,0c5.57.06,20.68.32,26.45.41Z" style="fill:#ebebeb"></path><path d="M71.11,52V289.63H186.59V52Zm111.22,233.4h-107V56.23h107Z" style="fill:#ebebeb"></path><rect x="75.38" y="56.23" width="106.95" height="229.14" style="fill:#fff"></rect><rect x="75.37" y="178.67" width="106.95" height="4.26" transform="translate(257.69 361.59) rotate(180)" style="fill:#ebebeb"></rect><rect x="63.27" y="289.63" width="131.16" height="12.23" transform="translate(257.69 591.48) rotate(180)" style="fill:#dbdbdb"></rect><path d="M75.37,56.22h107V205.65H75.37Zm103,4H79.32V201.71h99.06Z" style="fill:#dbdbdb"></path><rect x="146.06" y="56.22" width="2.13" height="145.48" style="fill:#dbdbdb"></rect><rect x="109.51" y="56.22" width="2.13" height="145.48" style="fill:#dbdbdb"></rect><path d="M313.42,52V289.63H428.89V52Zm111.21,233.4H317.68V56.23h107Z" style="fill:#ebebeb"></path><rect x="317.68" y="56.23" width="106.95" height="229.14" style="fill:#fff"></rect><rect x="317.68" y="178.67" width="106.95" height="4.26" transform="translate(742.31 361.59) rotate(180)" style="fill:#ebebeb"></rect><rect x="305.57" y="289.63" width="131.16" height="12.23" transform="translate(742.31 591.48) rotate(180)" style="fill:#dbdbdb"></rect><path d="M317.68,56.22h107V205.65H317.68Zm103,4H321.62V201.71h99.06Z" style="fill:#dbdbdb"></path><rect x="388.36" y="56.22" width="2.13" height="145.48" style="fill:#dbdbdb"></rect><rect x="351.81" y="56.22" width="2.13" height="145.48" style="fill:#dbdbdb"></rect></g><g id="freepik--Floor--inject-40"><path d="M53.59,476.2c125.83-.62,267-.62,392.82,0-125.83.61-267,.61-392.82,0Z" style="fill:#263238"></path></g><g id="freepik--Plant--inject-40"><path d="M268.2,190c1.2-5.88-.27-13.33-9.39-22.31s-10.4-13.43-11.72-17.3-5-19.22-4.19-25.72S269,78,282.56,65.19s26.56-13.28,33.09-15.81,10.8-6.81,18.56-4.08,6.29,15.53,4.88,27.36-5.47,39-7.26,44.81-19.64,22.49-22,27.3-8.89,19.46-16.56,24.1-18.67,11.43-21.1,14.84S268.2,190,268.2,190Z" style="fill:#37474f"></path><path d="M268.2,190c1.05-5.14-.56-21.86-8.54-29.71s-8.26-15.38-9.42-18.76-4.4-16.82-3.66-22.51,22.81-40.84,34.7-52,23.23-11.61,28.94-13.83,9.45-5.95,16.24-3.57,5.5,13.59,4.26,23.94-4.78,34.09-6.35,39.19-17.17,19.68-19.2,23.89S297.73,157,291,161a49.49,49.49,0,0,0-13.79,12.48C275.1,176.49,268.2,190,268.2,190Z" style="fill:#455a64"></path><path d="M268.5,183.38c-5.33,17.08-33.32,90.67-33.32,204.73h3.51s.95-122,33.52-204.4Z" style="fill:#263238"></path><path d="M268.75,184c2.19-10.5,8-41.73,10.35-51.63,7.34-19.47,18.43-37.22,28.18-55.5,3.17-5.62,7.77-10.18,12.34-14.63s9.49-8.52,14.51-12.45c-4.94,4-9.71,8.26-14.25,12.72s-8.94,9.14-11.94,14.71c-9.34,18.37-20,36.28-26.94,55.71-.84,3.12-2,10.75-2.62,14l-6.68,37.63-2.95-.55Z" style="fill:#263238"></path><path d="M271.08,173.94c-6.74-7.28-13.76-14.63-18.48-23.44-4.33-9-6.89-18.73-8.85-28.49.68,2.33,1.33,4.8,2.06,7.16,2.12,7.1,4.38,14.25,7.69,20.88,2.12,4.47,5.28,8.33,8.25,12.27s6.18,7.77,9.33,11.62Z" style="fill:#263238"></path><path d="M304.18,155.9c-9.88,7.95-21.46,13.72-33.1,18.62l4.17-2.29c9.51-5.15,19.85-10.51,28.93-16.33Z" style="fill:#263238"></path><path d="M274.15,165.8c12.19-7.05,24.6-13.74,36.16-21.79-10.75,9.16-23.35,16-36.16,21.79Z" style="fill:#263238"></path><path d="M275.84,155.81c13.59-7.64,27.59-15,39.47-25.2,4.54-4.24,8.39-9.26,12.28-14.12,2-2.45,3.84-4.95,5.74-7.44-5.3,7.76-10.63,15.64-17.41,22.23-11.83,10.38-26,17.7-40.08,24.53Z" style="fill:#263238"></path><path d="M278.27,145c13.47-7.58,27.33-14.9,39.17-24.93,4.55-4.15,8.35-9.14,12.22-13.95,1.94-2.42,3.82-4.89,5.71-7.36-5.28,7.68-10.54,15.52-17.33,22C306.25,131,292.23,138.23,278.27,145Z" style="fill:#263238"></path><path d="M279.85,134.53c15.45-8.68,30.93-17.75,44.15-29.63,4.34-4,8.4-8.36,12.38-12.74a139.5,139.5,0,0,1-11.85,13.3c-13,12.2-28.67,21.35-44.68,29.07Z" style="fill:#263238"></path><path d="M337.77,82.77a163,163,0,0,1-11.67,13c-10.59,10-22.92,18-35.63,25.1-2.56,1.37-5.13,2.73-7.74,4,15-8.78,29.91-18,42.84-29.67,4.25-3.95,8.22-8.22,12.2-12.44Z" style="fill:#263238"></path><path d="M338.58,76.69c-3.44,3.93-7,7.74-10.81,11.36-11.5,10.76-25.46,18.46-39.42,25.51l-.17.08.16-.09c8.87-5.26,18.18-10.59,26.61-16.47,8.72-5.77,16.22-13.07,23.63-20.39Z" style="fill:#263238"></path><path d="M339.4,70c-6.63,6.34-13.23,12.77-20.82,18a158,158,0,0,1-24.22,13.5l.19-.1c7.87-4.44,16.09-9,23.46-14.22,7.61-5.1,14.25-11.44,21.39-17.16Z" style="fill:#263238"></path><path d="M302.17,87.52c6.59-3.7,13.25-7.27,19.59-11.37,6.45-3.94,12.29-8.74,18.32-13.28a123,123,0,0,1-37.91,24.65Z" style="fill:#263238"></path><path d="M309.33,74.79c10.49-5.45,20.93-11.84,30.83-18.22a112.14,112.14,0,0,1-30.83,18.22Z" style="fill:#263238"></path><path d="M339.5,51.88A85.59,85.59,0,0,1,317.94,64c7.08-4.27,14.3-8.1,21.56-12.07Z" style="fill:#263238"></path><path d="M338.7,49.58A42.74,42.74,0,0,1,327,55.72a42.59,42.59,0,0,1,11.74-6.14Z" style="fill:#263238"></path><path d="M248.11,113.39c2.22,9.38,4.33,18.92,8.25,27.74,3,6.56,7.57,12.33,11.7,18.24,1.39,2,2.84,3.93,4.27,5.89-6.22-7.43-12.57-15-16.88-23.72-3.87-9-5.9-18.55-7.34-28.15Z" style="fill:#263238"></path><path d="M253.55,104.21c1.69,9.33,3.26,18.82,6.7,27.67,2.69,6.58,6.81,12.52,10.54,18.56,1.26,2,2.57,4,3.86,6-5.71-7.64-11.49-15.42-15.33-24.21-3.37-9-4.86-18.53-5.77-28Z" style="fill:#263238"></path><path d="M277.56,146.85c-5.26-7.49-10.39-15.16-14-23.59a87.88,87.88,0,0,1-4.36-20.14c-.23-2.27-.45-4.55-.58-6.83,1.41,9,2.68,18.1,5.88,26.61,3.44,8.26,8.62,16.18,13.09,23.95Z" style="fill:#263238"></path><path d="M266,85.45c.46,8.7.73,17.58,3.05,26a177.75,177.75,0,0,0,7.31,18.26l2.67,6a142.25,142.25,0,0,1-10.94-24c-2.25-8.58-2.43-17.48-2.09-26.27Z" style="fill:#263238"></path><path d="M275.44,73c-.63,8.87-1.46,17.89-.22,26.72,1.13,6.54,3.25,13,5.16,19.39l2,6.41c-3.35-8.32-6.45-16.81-8.14-25.66-1.14-9-.23-18,1.21-26.86Z" style="fill:#263238"></path><path d="M284.55,63.41c-1.15,8.5-2.53,17.14-1.77,25.71a191.51,191.51,0,0,0,3.66,19l1.44,6.32a146.1,146.1,0,0,1-6.1-25.25c-.66-8.71.81-17.35,2.77-25.8Z" style="fill:#263238"></path><path d="M294.11,103.22a146.67,146.67,0,0,1-3.35-23.5c0-8,1.87-15.78,4.2-23.35-.39,1.94-.81,3.86-1.17,5.81-1.09,5.76-2.17,11.66-2,17.51.31,7.74,1.47,15.81,2.35,23.53Z" style="fill:#263238"></path><path d="M301.82,88.45a123.5,123.5,0,0,1-1-18.14c.08-6.1,1.73-12.06,3.71-17.78L303.62,57c-2.52,10.08-1.77,21.16-1.8,31.48Z" style="fill:#263238"></path><path d="M309.33,74.79c.08-4.15.51-8.27,1-12.38s1-8.29,2.59-12.15c-1.46,8.16-1.73,16.43-3.58,24.53Z" style="fill:#263238"></path><path d="M318,64a57.19,57.19,0,0,1,4.28-17.63A135.57,135.57,0,0,1,318,64Z" style="fill:#263238"></path><path d="M327,55.6a32.17,32.17,0,0,1,2.5-11.18A31.84,31.84,0,0,1,327,55.6Z" style="fill:#263238"></path><path d="M243,144.81c-2.63,5.68-8.23,12.85-8.35,17.95-.19,9.29-3.09,13.91-5.54,18.35a61.61,61.61,0,0,0-3.87,8.64s-1.84-2.51-6.37-3.13-11.28-.06-18.95-6-9.39-17.09-13-21.5-11.57-9.86-17.64-20.48-10.41-33.4-21.52-47.58-20.67-21.76-23.67-30.91,2-18.66,6.13-19.17,26.28,6.51,30.05,8.48,10.92,6.15,15.23,6.61c3.12.34,11.63,3.38,16.81,5.55,2.21,3.8,2.41,7.43,3.5,11.35,1.59,5.7,2.31,15.82,2.31,15.82s1.8-9.46,1.53-15a68.17,68.17,0,0,0-1.26-8.45c2.05,1.86,4.57,4.23,7.31,6.91,1.13,4.22,3,11.4,3.86,16.55,1.33,7.72,0,19.36,0,19.36s3-13.68,4-20.38c.31-2.24-1.58-7-1.58-9.4,9.06,9.36,20.32,22,23.43,28.29C241.32,118.55,245.68,139.12,243,144.81Z" style="fill:#37474f"></path><path d="M239.29,140.62c-2.34,5-7.32,11.42-7.43,15.95-.17,8.25-2.74,12.35-4.91,16.3a53.89,53.89,0,0,0-3.45,7.67s-1.63-2.22-5.65-2.77-10-.06-16.84-5.31-8.34-15.18-11.53-19.1-10.28-8.76-15.67-18.2-9.25-29.67-19.12-42.27-18.37-19.33-21-27.46,1.78-16.57,5.45-17,23.34,5.78,26.69,7.53,9.7,5.47,13.53,5.88a60.08,60.08,0,0,1,13.34,3.84c2,3.38,2.14,6.6,3.11,10.09,1.41,5.06,2.33,16.51,2.33,16.51s2.91-9.78,2.68-14.71A60.76,60.76,0,0,0,199.67,70c1.82,1.65,4.06,3.76,6.49,6.15,1,3.75,2.65,10.12,3.43,14.7,1.18,6.85-.62,22.76-.62,22.76s4.25-17.21,5.1-23.16c.28-2-1.34-8.1-1.34-10.26,8.06,8.32,17,21,19.8,26.53C237.75,117.29,241.63,135.56,239.29,140.62Z" style="fill:#455a64"></path><path d="M223.25,185.83c-5.79-23.13-9.39-47.27-19.75-69C198.68,106.37,190.58,98,182.37,90,166.92,75.29,150,62.16,132.7,49.75c20.7,14.51,59.64,42.26,71.08,64,8.41,15.81,13,33.32,17.23,50.61,1.7,6.91,3.15,13.93,5.12,20.61l-2.88.87Z" style="fill:#263238"></path><path d="M123.56,57.79c9.09,1.28,18.16,3,27.11,5a130.89,130.89,0,0,1-27.11-5Z" style="fill:#263238"></path><path d="M129.89,70.06c10.21,1.45,25.92,3.63,36.06,4.8a146.86,146.86,0,0,1-36.06-4.8Z" style="fill:#263238"></path><path d="M139.82,81.54c11.31,1.3,23.2,2.6,34.56,2.51.77,0,1.55,0,2.32,0-12.29,1.64-24.85.28-36.88-2.48Z" style="fill:#263238"></path><path d="M147.79,91c11.84,1.48,24.28,2.95,36.2,2.84.81,0,1.62,0,2.43,0-12.89,1.68-26,.16-38.63-2.8Z" style="fill:#263238"></path><path d="M154,101c12.8,1.25,25.65,2.39,38.51,1.77l2.58-.15c-13.61,2.28-27.63,1.08-41.09-1.62Z" style="fill:#263238"></path><path d="M158,109.8c13.5,1.46,27.06,2.77,40.64,2.12l2.72-.15c-14.38,2.34-29.16.94-43.36-2Z" style="fill:#263238"></path><path d="M206.53,121.76c-14.88,2.38-30.17.86-44.84-2.21l5.6.62c13,1.49,26.14,2.47,39.24,1.59Z" style="fill:#263238"></path><path d="M164.65,127.79c14.06,2.3,28.21,4.42,42.49,4.34l2.85,0c-15.19,1.76-30.62-.51-45.34-4.29Z" style="fill:#263238"></path><path d="M213.44,141.63c-15.24,1.43-30.64-1.16-45.3-5.25l5.63,1c13.1,2.39,26.32,4.3,39.67,4.24Z" style="fill:#263238"></path><path d="M216.87,151c-14.15,1.4-28.48-.82-42.14-4.53l5.25.87c12.2,2,24.5,3.66,36.89,3.66Z" style="fill:#263238"></path><path d="M218.85,159.93c-11.27,1.28-22.75-.1-33.72-2.81,11.08,1.35,22.58,2.73,33.72,2.81Z" style="fill:#263238"></path><path d="M220.46,169.42a86.74,86.74,0,0,1-30.29-4.16c1.27.18,2.53.41,3.79.61,8.78,1.51,17.62,2.84,26.5,3.55Z" style="fill:#263238"></path><path d="M223.32,178.77A81.29,81.29,0,0,1,195,175.06c1.19.15,2.36.35,3.55.52,8.22,1.31,16.49,2.49,24.79,3.19Z" style="fill:#263238"></path><path d="M243.27,132.81a42.13,42.13,0,0,1-2.29,15.9,125.28,125.28,0,0,1,2.29-15.9Z" style="fill:#263238"></path><path d="M223.32,178.77a55.33,55.33,0,0,0,11-11.62c-2,5-5.94,9.58-11,11.62Z" style="fill:#263238"></path><path d="M220.46,169.42c13.38-8.65,17.14-27.3,19.32-42l.44-3.4.39-3.41c-.51,16.62-4.18,40.13-20.15,48.86Z" style="fill:#263238"></path><path d="M236.09,108.06c-.44,15.27-3.24,38.52-14.52,49.65a28,28,0,0,1-2.72,2.22,26,26,0,0,0,4.7-5.13c4-5.69,6.27-12.46,8-19.16,2.34-8.95,3.53-18.39,4.54-27.58Z" style="fill:#263238"></path><path d="M215.24,151.14c9.54-9.63,12.72-26.82,15.28-39.79.55-3.16,1.13-6.69,1.63-9.85-1.19,15.31-4.71,39.27-16.91,49.64Z" style="fill:#263238"></path><path d="M212.73,142.3c10.07-11.76,11.61-33.49,13.29-48.53,0,2.14-.09,4.28-.17,6.41-.93,13.57-3,32.19-13.12,42.12Z" style="fill:#263238"></path><path d="M210.09,132.37c4.92-5.64,7.23-13,9-20.11a166.86,166.86,0,0,0,3.05-16.47l.76-5.55c-.57,13.52-2.72,32.32-12.86,42.13Z" style="fill:#263238"></path><path d="M205.29,122.07c7.54-9.11,9.48-21.34,11.62-32.63l.83-5c-.78,12.43-3.07,28.62-12.45,37.6Z" style="fill:#263238"></path><path d="M208.6,83.72c.3,9.39-.58,19.84-6.67,27.43a28.93,28.93,0,0,0,1.65-3.17c3.38-7.62,4.08-16,5-24.26Z" style="fill:#263238"></path><path d="M201.91,68.57c.71,10.07.36,20.8-4.25,30a22,22,0,0,1-2.43,3.64,27,27,0,0,0,2-3.85c3.87-9.4,4.12-19.77,4.69-29.79Z" style="fill:#263238"></path><path d="M186.72,93.46c3.82-9.13,3.06-19.35,2.42-29l-.34-4.21c2.15,10.71,3.54,23.37-2.08,33.23Z" style="fill:#263238"></path><path d="M176.75,84.34c3.55-8.62,3-18.15,2.86-27.29,1.54,9,2,19.18-2.86,27.29Z" style="fill:#263238"></path><path d="M165.84,75.56c2.76-6.89,2.91-14.21,3.32-21.53,1,7.2.72,15.25-3.32,21.53Z" style="fill:#263238"></path><path d="M150.56,63.4c2-5.32,2.6-10.76,3.43-16.36.59,5.57-.18,11.67-3.43,16.36Z" style="fill:#263238"></path><path d="M222.62,186c39.61,79.79,27.18,202.16,27.18,202.16h3.9S264.87,261,226.46,184.93Z" style="fill:#263238"></path><path d="M234.6,258.61c-1,3.82-1.21,11.18-1.21,11.18s-4.76-7.5-9.44-9.85-21.24-7.84-29.52-14.37a52.28,52.28,0,0,1-5.82-5.43,54.07,54.07,0,0,0,6.27,1c5.72.43,18.71-1.32,18.71-1.32s-11.9-1.33-17.18-2.93c-3.76-1.14-9.91-3.6-15.24-5.67a55,55,0,0,0-5.26-6.14c-4-3.57-13.32-12-18.22-18.52S148,187,146.27,181.14s-10-17.16-10-17.16,3.42.62,7,1.43,29.29,2.28,47,11.09c12.32,6.13,35.33,27,38.77,32s10.22,25.09,10.56,31.81S235.59,254.78,234.6,258.61Z" style="fill:#37474f"></path><path d="M232.43,253.17a60.75,60.75,0,0,0-1.08,10s-4.25-6.7-8.42-8.8-16.52-2.49-23.91-8.31a45.75,45.75,0,0,1-5.19-4.86,48.18,48.18,0,0,0,5.59.9c5.1.38,17.91-2.58,17.91-2.58l-19-5.72c-3.35-1-8.84-3.21-13.6-5.06a50.06,50.06,0,0,0-4.69-5.49c-3.54-3.18-11.89-10.72-16.27-16.53s-8.69-17.45-10.19-22.69-8.94-15.31-8.94-15.31,3,.55,6.27,1.27,26.15,2,42,9.9c11,5.47,31.54,24.09,34.6,28.54s9.12,22.39,9.43,28.39S233.32,249.76,232.43,253.17Z" style="fill:#455a64"></path><path d="M230.74,266.14c4.66,11.61,8,21.77,11,43.33,3.75,27.35,3.37,78.64,3.37,78.64h2.58s3.17-79.43-14.08-122.37Z" style="fill:#263238"></path><path d="M231.5,266.77c-4.61-11.1-7.84-22.73-11.64-34.09-1.49-4.14-2.93-8.43-5.66-11.9-4.89-5.63-10.19-10.94-15.45-16.24a258.58,258.58,0,0,0-19.81-18.23,48.42,48.42,0,0,0-7.63-4.62C160.69,176.14,149.86,171,139,165.8c10.9,5,21.78,10,32.5,15.44a49.71,49.71,0,0,1,7.78,4.57,258.32,258.32,0,0,1,20.13,18c5.36,5.26,10.75,10.49,15.76,16.11,2.91,3.58,4.48,8,6.07,12.24,2,5.68,3.79,11.4,5.74,17.06s4,11.27,6.32,16.76l-1.84.77Z" style="fill:#263238"></path><path d="M230.06,260.46c.73-4.51,2.83-10.78,4.13-15.21a80.77,80.77,0,0,0,2.49-11.47c.25-1.29.47-2.58.75-3.87-.1,2.26-.42,5.58-.64,7.87-.94,7.89-4.32,15.18-6.73,22.68Z" style="fill:#263238"></path><path d="M232.66,215.93c-.07,6.23.18,12.54-.87,18.71s-3.19,12-4.68,18.11c.18-1.55.45-3.09.72-4.62.91-4.57,2.15-9.1,3-13.67,1.07-6.13,1-12.36,1.85-18.53Z" style="fill:#263238"></path><path d="M228.18,207.35a118.34,118.34,0,0,1-.42,18.54,129.5,129.5,0,0,1-3,13.58c-.39,1.5-.72,3-1.06,4.51.53-6.15,2.25-12.14,3.05-18.23s.85-12.28,1.41-18.4Z" style="fill:#263238"></path><path d="M222.09,201.07c.45,4.05.85,8.18,1,12.26,0,5.48-1.06,10.88-1.88,16.27-.23,1.34-.41,2.69-.61,4,0-5.45.89-10.87,1.32-16.28s0-10.84.2-16.29Z" style="fill:#263238"></path><path d="M213.32,255.51a64.71,64.71,0,0,1,16,3.66,65.62,65.62,0,0,1-16-3.66Z" style="fill:#263238"></path><path d="M189.84,241.41c10,4.28,21.66,6.37,32.18,9.23,1.54.44,3.09.83,4.63,1.29-1.59-.23-3.16-.54-4.74-.81-10.91-2.23-22.25-4.17-32.07-9.71Z" style="fill:#263238"></path><path d="M208.07,240.47a56.21,56.21,0,0,1,15.13,1.44,56.25,56.25,0,0,1-15.13-1.44Z" style="fill:#263238"></path><path d="M175.31,224.52c3.71.92,7.37,1.94,11,3,9,2.31,19,2.65,28.23,3.74l5.69.6a190.51,190.51,0,0,1-28.53-2.24c-5.66-1-11-3.24-16.42-5.07Z" style="fill:#263238"></path><path d="M167.47,217.23c15.68,2.45,32.2,3.57,48,5.07-16.09-.18-32.35-1.26-48-5.07Z" style="fill:#263238"></path><path d="M210.22,215.38c-16.68-.24-33.58-1.29-49.78-5.48,1,.17,2.06.34,3.08.53,15.19,2.38,31.36,3.52,46.7,4.95Z" style="fill:#263238"></path><path d="M156.17,204.32c15.71,2.47,32.29,3.6,48.16,5.1-16.14-.19-32.44-1.27-48.16-5.1Z" style="fill:#263238"></path><path d="M200.05,205c-15.45-.14-31.11-1.21-46.18-4.69,15.33,2.15,30.77,3.21,46.18,4.69Z" style="fill:#263238"></path><path d="M195.06,199.42c-14.58-.07-29.33-1.12-43.6-4.22,14.24,1.71,29.32,2.82,43.6,4.22Z" style="fill:#263238"></path><path d="M189.18,194.12a200.56,200.56,0,0,1-39.64-3.56c11.58,1.06,28.23,2.41,39.64,3.56Z" style="fill:#263238"></path><path d="M182.77,188.39a181.49,181.49,0,0,1-35.13-2.94c11.28.77,23.88,1.74,35.13,2.94Z" style="fill:#263238"></path><path d="M146.5,181.91c9.95.41,20,1.16,29.89,2.3a150.48,150.48,0,0,1-29.89-2.3Z" style="fill:#263238"></path><path d="M170.63,180.9a118.7,118.7,0,0,1-25.11-1.8,222.11,222.11,0,0,1,25.11,1.8Z" style="fill:#263238"></path><path d="M165.36,178.53A91.66,91.66,0,0,1,144,176.07a142.8,142.8,0,0,1,21.32,2.46Z" style="fill:#263238"></path><path d="M160.63,175.83a76.63,76.63,0,0,1-17.85-2,80,80,0,0,1,17.85,2Z" style="fill:#263238"></path><path d="M143.55,168.09a5.75,5.75,0,0,1-4.74-.47,5.75,5.75,0,0,1,4.74.47Z" style="fill:#263238"></path><path d="M149.72,170.55a22.6,22.6,0,0,1-9.61-1,23.28,23.28,0,0,1,9.61,1Z" style="fill:#263238"></path><path d="M156.11,173.78a49.67,49.67,0,0,1-14.3-1.55,51.32,51.32,0,0,1,14.3,1.55Z" style="fill:#263238"></path><path d="M215.37,195c2.37,9,1.43,18.23.8,27.39l0,.43,0-.44a118.49,118.49,0,0,1-.16-13.72c.19-4.58-.34-9.1-.57-13.66Z" style="fill:#263238"></path><path d="M209.13,189.68a54.84,54.84,0,0,1,2.22,13.7c.12,4-.08,9.77-.13,13.85a112,112,0,0,1-.87-13.82c0-4.62-.75-9.15-1.22-13.73Z" style="fill:#263238"></path><path d="M203.48,185.19c2.62,8.4,2,17.61,1.84,26.29a96.82,96.82,0,0,1-.86-13.18c0-4.4-.54-8.74-1-13.11Z" style="fill:#263238"></path><path d="M196.63,180.27c3.05,7.83,3.05,16.68,3.56,25v.1c-1.88-8.25-1.81-16.78-3.56-25.06Z" style="fill:#263238"></path><path d="M191.22,177c2.6,7.26,2.5,15.11,3,22.7-1.84-7.44-1.71-15.14-3-22.7Z" style="fill:#263238"></path><path d="M185.61,174.4c2.19,6.34,2.46,13.07,3,19.7-1.79-5.44-2.31-13.91-3-19.7Z" style="fill:#263238"></path><path d="M179.37,172.17c1.78,5.28,2.3,10.8,2.78,16.32-1.83-5.24-2.35-10.8-2.78-16.32Z" style="fill:#263238"></path><path d="M173.31,170.45a56,56,0,0,1,3.08,13.76,42.61,42.61,0,0,1-3.08-13.76Z" style="fill:#263238"></path><path d="M168.38,169.29a45.31,45.31,0,0,1,2.72,12.16,32.43,32.43,0,0,1-2.72-12.16Z" style="fill:#263238"></path><path d="M163.15,168.25a34.45,34.45,0,0,1,2.38,10.52,24.23,24.23,0,0,1-2.38-10.52Z" style="fill:#263238"></path><path d="M158.65,167.49a19.4,19.4,0,0,1,2,8.6,18.85,18.85,0,0,1-2-8.6Z" style="fill:#263238"></path><path d="M154,166.79a13.58,13.58,0,0,1,1.68,7.19,13.57,13.57,0,0,1-1.68-7.19Z" style="fill:#263238"></path><path d="M148,166a5.61,5.61,0,0,1,1.14,4.56A5.69,5.69,0,0,1,148,166Z" style="fill:#263238"></path><path d="M143.16,165.39a3,3,0,0,1,1,2.56s-.35-.27-.3-.24l.33.13c-.09.73-.12,1.08-.65.27,0,0,.35.26.3.25l-.13,0a3.21,3.21,0,0,1-.52-3Z" style="fill:#263238"></path><path d="M233.61,287.45s-15.69-46.87-41.17-49c-19.3-1.58-33,11.5-37.93,12.69S135.67,255.33,125,273c0,0,13.28-6,19-6.94s9.12-.2,15.86-1,22-5.28,39.85.39C220.33,272,233.61,287.45,233.61,287.45Z" style="fill:#263238"></path><path d="M232.41,287.42c-.65-.72-12.58-15.59-32.7-22-14.28-4.55-26.9-2.59-34.81-1.21,15.93-3.79,32.43-13.47,43.53-15.84a20.06,20.06,0,0,1,2.24-.37c9.41-1.16,13,4.56,14.62,12.85,1.31,6.62,5.26,18,7.2,23.48.15.42.29.79.41,1.12.27.77.49,1.35.61,1.67,0,.12.07.2.08.25S232.41,287.41,232.41,287.42Z" style="fill:#37474f"></path><path d="M231.23,286.06c-3.53-3.93-14.64-15.26-31.52-20.61a60.24,60.24,0,0,0-17.22-2.82c10-3.9,19.53-8.7,26.6-10.21a17.8,17.8,0,0,1,2-.33c8.48-1,11.69,4.12,13.18,11.59,1.19,6,4.75,16.27,6.5,21.18.13.38.26.71.36,1C231.18,285.94,231.21,286,231.23,286.06Z" style="fill:#455a64"></path><path d="M180.33,262.63c6.52-2.34,12.95-4.9,19.46-7.3s13.13-4.82,20.07-5.32c-13.56,2.85-26,9.55-39.53,12.62Z" style="fill:#263238"></path><path d="M193.19,263.77c9.67-4,19.45-8.59,30-9.58-10.25,2.34-19.82,6.88-30,9.58Z" style="fill:#263238"></path><path d="M202.17,266.29c7.38-2.91,15-5.57,22.94-6.25-7.69,2-15.14,4.64-22.94,6.25Z" style="fill:#263238"></path><path d="M208.5,269c5.59-2.38,11.53-4.27,17.66-4.38-5.23,1.33-12.4,3.48-17.66,4.38Z" style="fill:#263238"></path><path d="M227.54,269.51a106.24,106.24,0,0,1-14.2,2,33.07,33.07,0,0,1,14.2-2Z" style="fill:#263238"></path><path d="M217.66,274.28a18.53,18.53,0,0,1,11.16-.71,92.64,92.64,0,0,1-11.16.71Z" style="fill:#263238"></path><path d="M222.74,278.05a10.11,10.11,0,0,1,7.51-.13,23.09,23.09,0,0,1-7.51.13Z" style="fill:#263238"></path><path d="M227.44,282.17a4.11,4.11,0,0,1,4.35.2,6,6,0,0,1-4.35-.2Z" style="fill:#263238"></path><path d="M230.74,285.52c3.17,8,8.9,52.37,10.07,102.59h3s-3-82.67-10.24-100.71Z" style="fill:#263238"></path><path d="M288.13,229c-5.95,18.24-24.58,89.08-24.58,159.13h4s-2.18-73.68,24-157.54Z" style="fill:#263238"></path><path d="M287.93,236.31a85.6,85.6,0,0,0-2.25-27c-2.7-10.51-2.7-18.44-1.31-22.6s10.9-8.33,19.23-6.54,14.07,6.34,21.81,7.73,37.07-1.78,51.34,6.15c0,0-13.28,7.6-27.16,8.65-10.9.83-26.56-1.38-40.64,9.39A83.35,83.35,0,0,0,287.93,236.31Z" style="fill:#263238"></path><path d="M376.76,194.09s-13.28,7.59-27.16,8.65c-10.91.84-26.57-1.38-40.65,9.39a83,83,0,0,0-21,24.16c.26-.83,8.92-27.35,28.83-37.54C337,188.38,361.09,194.87,376.76,194.09Z" style="fill:#37474f"></path><path d="M376.76,194.09a80.36,80.36,0,0,1-14.34,6.06h0a58.64,58.64,0,0,1-12.81,2.58c-10.91.84-26.57-1.38-40.65,9.39a84.07,84.07,0,0,0-19.41,21.47c-1,1.54-1.5,2.52-1.59,2.69.26-.83,8.92-27.35,28.83-37.54C337,188.38,361.09,194.87,376.76,194.09Z" style="fill:#37474f"></path><path d="M364.87,198.88s-.9.51-2.45,1.27h0a58.64,58.64,0,0,1-12.81,2.58c-10.91.84-26.57-1.38-40.65,9.39a84.07,84.07,0,0,0-19.41,21.47c1.84-5,9.35-23.16,24.15-30.74C331,194,351.5,199.55,364.87,198.88Z" style="fill:#455a64"></path><path d="M291,231.34a116,116,0,0,1,17.57-27v0c-6.31,8.52-12.06,17.95-17.57,27Z" style="fill:#263238"></path><path d="M300.15,220.05a93.82,93.82,0,0,1,17.29-21.62c-6.07,6.78-11.77,14.37-17.29,21.62Z" style="fill:#263238"></path><path d="M310.63,210.91a70.37,70.37,0,0,1,14.61-15.52c-4.76,4.86-9.94,10.61-14.61,15.52Z" style="fill:#263238"></path><path d="M320.22,206.06a57.05,57.05,0,0,1,12.53-12.34c-4,4-8.37,8.47-12.53,12.34Z" style="fill:#263238"></path><path d="M340.77,192.91a134.45,134.45,0,0,1-11,10.9,54.79,54.79,0,0,1,11-10.9Z" style="fill:#263238"></path><path d="M347,192.8a72.09,72.09,0,0,1-10.63,10.4A71.59,71.59,0,0,1,347,192.8Z" style="fill:#263238"></path><path d="M354.54,193.07a49,49,0,0,1-10.63,9.9,113.13,113.13,0,0,1,10.63-9.9Z" style="fill:#263238"></path><path d="M363.09,199.93a52.82,52.82,0,0,1,8.84-5.8,18.64,18.64,0,0,1-8.84,5.8Z" style="fill:#263238"></path><path d="M352.1,202.48c3.81-3.11,7.67-5.87,11.63-8.79a28.76,28.76,0,0,1-11.63,8.79Z" style="fill:#263238"></path><path d="M286.59,298.4c-7,10.68-19.49,36.68-24,58.65s-5.16,31.06-5.16,31.06h3s2.84-46.05,27.29-86.53Z" style="fill:#263238"></path><path d="M285.51,304c3.15-2.7-1.13-13.6-.45-18.55a8.2,8.2,0,0,1,4.49-6.52,22.31,22.31,0,0,1,1.13-13c2.81-6.31,11.8-11.81,13.6-14.18s13-14.18,19-15.51c9.67-2.14,39.91,1.35,39.35,12.25-.48,9.24-25.07,18-45.42,29.91S285.51,304,285.51,304Z" style="fill:#263238"></path><path d="M362.12,250.49c-3.6,8.5-26.07,16.82-44.91,27.85a131.58,131.58,0,0,0-31.27,25.14l.12-.17c3.45-4.59,5-15.23,10.36-24.74,5.61-10,19.21-17.05,26.74-18.08S353.18,260,362.12,250.49Z" style="fill:#37474f"></path><path d="M348.39,261.82c-8.88,5-20.6,10.33-31.18,16.52a136.74,136.74,0,0,0-28.56,22.21c1.77-5.07,3.64-11.44,7-17.38,5.61-10,19.22-17.05,26.75-18.08C327.3,264.42,338.64,264.41,348.39,261.82Z" style="fill:#455a64"></path><path d="M291.17,298c3.06-8.38,6.66-17.51,10.1-25.74A157.86,157.86,0,0,1,291.17,298Z" style="fill:#263238"></path><path d="M297.21,292.55c2.91-8.12,6.35-17,9.66-24.93a150.2,150.2,0,0,1-9.66,24.93Z" style="fill:#263238"></path><path d="M302.84,288c2.7-7.67,5.93-16,9.08-23.49A138,138,0,0,1,302.84,288Z" style="fill:#263238"></path><path d="M308.22,284.09c2.53-7.37,5.36-14.62,8.42-21.77a123.43,123.43,0,0,1-8.42,21.77Z" style="fill:#263238"></path><path d="M313.37,280.68q3.39-10.08,7.72-19.8a108.07,108.07,0,0,1-7.72,19.8Z" style="fill:#263238"></path><path d="M318.36,277.69a113.47,113.47,0,0,1,6.86-17.43,115.55,115.55,0,0,1-6.86,17.43Z" style="fill:#263238"></path><path d="M329.22,260a84.68,84.68,0,0,1-6,15,85,85,0,0,1,6-15Z" style="fill:#263238"></path><path d="M328,272.41a61.38,61.38,0,0,1,5.15-12.74A60.72,60.72,0,0,1,328,272.41Z" style="fill:#263238"></path><path d="M337.15,259.3A43.4,43.4,0,0,1,332.76,270a43.4,43.4,0,0,1,4.39-10.67Z" style="fill:#263238"></path><path d="M341.14,258.8a29.37,29.37,0,0,1-3.65,8.77,29.48,29.48,0,0,1,3.65-8.77Z" style="fill:#263238"></path><path d="M345.18,258.12a18.88,18.88,0,0,1-2.94,7,18.88,18.88,0,0,1,2.94-7Z" style="fill:#263238"></path><path d="M347,262.59a11.29,11.29,0,0,1,2.31-5.41,11.58,11.58,0,0,1-2.31,5.41Z" style="fill:#263238"></path><path d="M353.63,255.78a6.27,6.27,0,0,1-1.71,4,6.24,6.24,0,0,1,1.71-4Z" style="fill:#263238"></path><path d="M358.29,253.54a2.86,2.86,0,0,1-1.13,2.63,2.82,2.82,0,0,1,1.13-2.63Z" style="fill:#263238"></path><path d="M284.68,302.49c-7.88.67-15.16,20.58-15.16,20.58s12.63-11.75,30.46-6.75C300,316.32,291.94,301.88,284.68,302.49Z" style="fill:#263238"></path><path d="M284.68,302.49s2.71.11,4.86,3.91c2.8,4.93,5.85,14.32,13.3,19.57,13.17,9.29,27.73,12.75,31.75,19,0,0,1.93-22.43-14.84-37.43-4-3.6-12.48-.14-18.57-.69S290.92,301.76,284.68,302.49Z" style="fill:#37474f"></path><path d="M284.68,302.49s4.61.84,6.37,3.94c2.29,4,4.79,11.72,10.89,16,10.78,7.6,27,11.4,30.25,16.51,0,0-2.68-19.33-16.41-31.6-3.3-2.95-10.21-.12-15.21-.57S289.78,301.89,284.68,302.49Z" style="fill:#455a64"></path><path d="M302.67,306.94c7.22,4.43,13.27,10.42,19,16.55A56.87,56.87,0,0,1,334.59,345c-3.93-12.15-12.91-21.6-22.32-29.83a70,70,0,0,0-10.12-7.34l.52-.85Z" style="fill:#263238"></path><path d="M289.45,306.24c6.26,1.81,12.45,3.78,18.83,5.13a50.81,50.81,0,0,1-18.83-5.13Z" style="fill:#263238"></path><path d="M291.84,311c6.62,1.29,14.18,2.93,20.85,4.06A67.92,67.92,0,0,1,291.84,311Z" style="fill:#263238"></path><path d="M316.81,318.87A75.85,75.85,0,0,1,294,315.26c7.48,1.22,15.28,2.69,22.81,3.61Z" style="fill:#263238"></path><path d="M320.13,321.78a75.9,75.9,0,0,1-22.94-1.44c7.42.5,15.5,1.21,22.94,1.44Z" style="fill:#263238"></path><path d="M300.53,324.08c7.43.5,15.19,1.19,22.63,1.42a74.19,74.19,0,0,1-22.63-1.42Z" style="fill:#263238"></path><path d="M306.32,328.28c5.53.09,13.83.43,19.43.55a62.11,62.11,0,0,1-19.43-.55Z" style="fill:#263238"></path><path d="M328,331.65a50.34,50.34,0,0,1-16.34-.28c5.28-.08,11.06.1,16.34.28Z" style="fill:#263238"></path><path d="M318.26,334.73a73.65,73.65,0,0,1,11.6,0,31.21,31.21,0,0,1-11.6,0Z" style="fill:#263238"></path><path d="M331.45,337.42a17.54,17.54,0,0,1-7.32.17,17.54,17.54,0,0,1,7.32-.17Z" style="fill:#263238"></path><path d="M333,340.45a3.82,3.82,0,0,1-3.36.15,3.89,3.89,0,0,1,3.36-.15Z" style="fill:#263238"></path><path d="M334.31,337a3.81,3.81,0,0,1-1.29,3.09,3.82,3.82,0,0,1,1.29-3.09Z" style="fill:#263238"></path><path d="M333.57,332.39a10.08,10.08,0,0,1-2.12,5.08,9.91,9.91,0,0,1,2.12-5.08Z" style="fill:#263238"></path><path d="M332.19,327.09a21.51,21.51,0,0,1-2.33,7.78,21.45,21.45,0,0,1,2.33-7.78Z" style="fill:#263238"></path><path d="M330.49,322.55a30.42,30.42,0,0,1-2.76,9.27,30.42,30.42,0,0,1,2.76-9.27Z" style="fill:#263238"></path><path d="M328.53,318.56a40.62,40.62,0,0,1-2.78,10.79,39.88,39.88,0,0,1,2.78-10.79Z" style="fill:#263238"></path><path d="M326,314.54a42.37,42.37,0,0,1-2.84,11,41.69,41.69,0,0,1,2.84-11Z" style="fill:#263238"></path><path d="M322.77,310.52a47.09,47.09,0,0,1-3,11.61,46.12,46.12,0,0,1,3-11.61Z" style="fill:#263238"></path><path d="M319.54,307.36a48.19,48.19,0,0,1-3,11.8,47.75,47.75,0,0,1,3-11.8Z" style="fill:#263238"></path><path d="M315.14,305.91a31.32,31.32,0,0,1-2.45,9.43,30.33,30.33,0,0,1,2.45-9.43Z" style="fill:#263238"></path><path d="M309.41,306.25a9.06,9.06,0,0,1-1.32,5.08,9.12,9.12,0,0,1,1.32-5.08Z" style="fill:#263238"></path><path d="M271.58,318.14c-11.47,14.86-24.95,45.65-26.47,70h2.58s5.91-43.56,25.36-67.64Z" style="fill:#263238"></path><path d="M227.43,142s-2.17-3.79-9-6a12.76,12.76,0,0,0,7-2.1s-2.19,0-11.08-1.52-19-4.47-19.44-4.85a55.85,55.85,0,0,0,7.51,4.67c4.91,2.57,13.93,5.68,17.06,6.69a9.79,9.79,0,0,1,4.7,3.27Z" style="fill:#455a64"></path><path d="M227.43,142s-2.17-3.79-9-6a12.76,12.76,0,0,0,7-2.1s-2.19,0-11.08-1.52-19-4.47-19.44-4.85a55.85,55.85,0,0,0,7.51,4.67c4.91,2.57,13.93,5.68,17.06,6.69a9.79,9.79,0,0,1,4.7,3.27Z" style="fill:#fff;opacity:0.4"></path><path d="M240.89,88.82s-18.69,20.39-11.57,44.6l2.31,1.25S248,113.52,240.89,88.82Z" style="fill:#85BEEC"></path><path d="M240.89,88.82s-18.69,20.39-11.57,44.6l2.31,1.25S248,113.52,240.89,88.82Z" style="opacity:0.2"></path><path d="M231.73,134.56l-.09.12c-3.34-19.65,8.74-45.15,9.22-45.83,0,0,0,0,0,0C247.66,112.43,233,132.8,231.73,134.56Z" style="opacity:0.1"></path><path d="M227.47,132.43a20.67,20.67,0,0,0,2.86,12.48l2,.3s-2-3.76-.72-10.54Z" style="fill:#85BEEC"></path><path d="M227.47,132.43s-1.35-7.14,5.8-15.8,24-20.58,24-20.58-8,24-14.84,30.5-10.85,8.12-10.85,8.12Z" style="fill:#85BEEC"></path><path d="M227.47,132.43s-1.35-7.14,5.8-15.8,24-20.58,24-20.58-8,24-14.84,30.5-10.85,8.12-10.85,8.12Z" style="opacity:0.1"></path><path d="M279,115.66s-27.63-.9-41.37,20.27l.56,2.57S264.89,137.13,279,115.66Z" style="fill:#85BEEC"></path><path d="M279,115.66s-27.63-.9-41.37,20.27l.56,2.57S264.89,137.13,279,115.66Z" style="opacity:0.2"></path><path d="M238.35,138.51h-.15c12.73-15.33,39.95-22.77,40.77-22.85,0,0,0,0,0,0C265.51,136.18,240.53,138.36,238.35,138.51Z" style="opacity:0.1"></path><path d="M285,137.32s-4.93-.83-12.38-1.8c-8.68-1.13-20.79-2.13-32.89,2.58l-1.05,2.4S260.55,150.37,285,137.32Z" style="fill:#85BEEC"></path><g style="opacity:0.2"><path d="M285,137.32s-4.93-.83-12.38-1.8c-8.68-1.13-20.79-2.13-32.89,2.58l-1.05,2.4S260.55,150.37,285,137.32Z"></path></g><path d="M237.67,135.72a20.63,20.63,0,0,0-7.61,10.3l1.09,1.73s1.56-4,7.53-7.41Z" style="fill:#85BEEC"></path><path d="M237.71,135.7s5.25-2.44,16.18-6.16c6-2,13.06-2.63,18.94-3.56,7-1.1,12.24-2.34,12.24-2.34s-23.35,20.28-32.92,19.46-13.47-2.76-13.47-2.76Z" style="fill:#85BEEC"></path><g style="opacity:0.1"><path d="M237.71,135.7s5.25-2.44,16.18-6.16c6-2,13.06-2.63,18.94-3.56,7-1.1,12.24-2.34,12.24-2.34s-23.35,20.28-32.92,19.46-13.47-2.76-13.47-2.76Z"></path></g><path d="M224.88,141.23A137.46,137.46,0,0,1,194.41,134a60.21,60.21,0,0,1-13.9-7s6.53,10.48,24.22,15.44,24,5.82,24,5.82Z" style="fill:#85BEEC"></path><path d="M224.88,141.23A137.46,137.46,0,0,1,194.41,134a60.21,60.21,0,0,1-13.9-7s6.53,10.48,24.22,15.44,24,5.82,24,5.82Z" style="opacity:0.2"></path><path d="M239.49,160.59s-1.56-14.47-6-17.7-54.53-3.32-69.43.45c0,0,26.31,6.44,37.79,8.09s22.47,1.39,25.78,2.44S236,165.54,236,165.54Z" style="fill:#85BEEC"></path><path d="M237.81,147.56s-4.49,5.82-3.17,17.45,8.19,29.34,11.37,65c2.81,31.68,6.08,158.07,6.08,158.07h4.49s-1.85-133.49-9.78-185.57C241.41,167.18,237.81,147.56,237.81,147.56Z" style="fill:#263238"></path><path d="M283.59,217.55s1.77-3.12,7.34-4.93a10.46,10.46,0,0,1-5.72-1.72s1.79,0,9.09-1.25a109.88,109.88,0,0,0,15.95-4,43.81,43.81,0,0,1-6.16,3.83,114.87,114.87,0,0,1-14,5.5,8,8,0,0,0-3.86,2.67Z" style="fill:#455a64"></path><path d="M283.59,217.55s1.77-3.12,7.34-4.93a10.46,10.46,0,0,1-5.72-1.72s1.79,0,9.09-1.25a109.88,109.88,0,0,0,15.95-4,43.81,43.81,0,0,1-6.16,3.83,114.87,114.87,0,0,1-14,5.5,8,8,0,0,0-3.86,2.67Z" style="fill:#fff;opacity:0.4"></path><path d="M272.54,173.93s15.34,16.73,9.49,36.6l-1.9,1S266.72,194.2,272.54,173.93Z" style="fill:#85BEEC"></path><path d="M272.54,173.93s15.34,16.73,9.49,36.6l-1.9,1S266.72,194.2,272.54,173.93Z" style="opacity:0.2"></path><path d="M280.05,211.46l.08.1c2.74-16.12-7.18-37.05-7.57-37.61l0,0C267,193.31,279,210,280.05,211.46Z" style="opacity:0.1"></path><path d="M283.55,209.72A17,17,0,0,1,281.2,220l-1.66.25s1.63-3.09.59-8.65Z" style="fill:#85BEEC"></path><path d="M283.55,209.72s1.11-5.87-4.76-13-19.73-16.88-19.73-16.88,6.57,19.67,12.17,25,8.9,6.67,8.9,6.67Z" style="fill:#85BEEC"></path><path d="M283.55,209.72s1.11-5.87-4.76-13-19.73-16.88-19.73-16.88,6.57,19.67,12.17,25,8.9,6.67,8.9,6.67Z" style="opacity:0.1"></path><path d="M241.25,196s22.68-.74,34,16.63l-.47,2.11S252.84,213.57,241.25,196Z" style="fill:#85BEEC"></path><path d="M241.25,196s22.68-.74,34,16.63l-.47,2.11S252.84,213.57,241.25,196Z" style="opacity:0.2"></path><path d="M274.62,214.7h.13C264.29,202.13,242,196,241.28,196c0,0,0,0,0,0C252.33,212.8,272.83,214.58,274.62,214.7Z" style="opacity:0.1"></path><path d="M236.33,213.73s4-.68,10.16-1.48c7.12-.92,17.06-1.74,27,2.12l.87,2A45.73,45.73,0,0,1,236.33,213.73Z" style="fill:#85BEEC"></path><g style="opacity:0.2"><path d="M236.33,213.73s4-.68,10.16-1.48c7.12-.92,17.06-1.74,27,2.12l.87,2A45.73,45.73,0,0,1,236.33,213.73Z"></path></g><path d="M275.18,212.42a16.92,16.92,0,0,1,6.24,8.45l-.89,1.42s-1.28-3.25-6.18-6.08Z" style="fill:#85BEEC"></path><path d="M275.15,212.4s-4.31-2-13.29-5.06c-4.89-1.66-10.71-2.16-15.54-2.92-5.7-.9-10-1.92-10-1.92s19.16,16.64,27,16,11.05-2.28,11.05-2.28Z" style="fill:#85BEEC"></path><g style="opacity:0.1"><path d="M275.15,212.4s-4.31-2-13.29-5.06c-4.89-1.66-10.71-2.16-15.54-2.92-5.7-.9-10-1.92-10-1.92s19.16,16.64,27,16,11.05-2.28,11.05-2.28Z"></path></g><path d="M285.68,216.94a112.45,112.45,0,0,0,25-6,49.62,49.62,0,0,0,11.41-5.77s-5.36,8.6-19.88,12.67-19.65,4.77-19.65,4.77Z" style="fill:#85BEEC"></path><path d="M285.68,216.94a112.45,112.45,0,0,0,25-6,49.62,49.62,0,0,0,11.41-5.77s-5.36,8.6-19.88,12.67-19.65,4.77-19.65,4.77Z" style="opacity:0.2"></path><path d="M273.69,232.83S275,221,278.61,218.3s44.75-2.73,57,.37c0,0-21.6,5.29-31,6.64s-18.44,1.14-21.15,2-6.87,9.58-6.87,9.58Z" style="fill:#85BEEC"></path><path d="M275.06,222.13s3.69,4,2.61,12-6.73,20.25-9.33,44.87c-2.31,21.86-5,109.07-5,109.07h-3.69s1.52-92.11,8-128C272.11,235.67,275.06,222.13,275.06,222.13Z" style="fill:#263238"></path><path d="M255.92,256.93c1.48,3.57-1.29,131.18-1.29,131.18h2.77s2.38-100.84.8-131.18Z" style="fill:#263238"></path><path d="M255.92,256.93s-9.32-3.57-14.28,0-10.15,15.07-7.16,32.91S244,320.38,251,329.5c0,0,15.27-16.06,23-30.14s12.69-28.55,10.51-40.25S265.63,250.19,255.92,256.93Z" style="fill:#37474f"></path><path d="M255.63,257.18s-8.2-3.14-12.56,0-8.93,13.25-6.29,28.94S245.17,313,251.27,321c0,0,13.42-14.12,20.22-26.49s11.16-25.11,9.24-35.39S264.17,251.25,255.63,257.18Z" style="fill:#455a64"></path><path d="M256.84,257.33a57.94,57.94,0,0,0-3.49,13c-3.15,19.53-3,39.44-2.39,59.18-.79-12.17-1.21-24.37-.92-36.58a194.68,194.68,0,0,1,1.7-22.86A60.13,60.13,0,0,1,255,256.53l1.84.8Z" style="fill:#263238"></path><path d="M250.65,323.66a25.65,25.65,0,0,1-7.7-7.08,58.73,58.73,0,0,1,7.7,7.08Z" style="fill:#263238"></path><path d="M250.65,323.66A219.39,219.39,0,0,0,269,307.36a68.22,68.22,0,0,1-18.32,16.3Z" style="fill:#263238"></path><path d="M250.52,318.61a181.58,181.58,0,0,0,27.1-26.43,103.68,103.68,0,0,1-27.1,26.43Z" style="fill:#263238"></path><path d="M250.52,312.78a175.79,175.79,0,0,0,31.8-32.4,116.63,116.63,0,0,1-31.8,32.4Z" style="fill:#263238"></path><path d="M250.31,306.64A190.46,190.46,0,0,0,284.36,272a128.77,128.77,0,0,1-34.05,34.62Z" style="fill:#263238"></path><path d="M250.83,300.44A191.24,191.24,0,0,0,285,265.71a129.22,129.22,0,0,1-34.14,34.73Z" style="fill:#263238"></path><path d="M250.31,294.74a190.5,190.5,0,0,0,34.27-34.93,129.44,129.44,0,0,1-34.27,34.93Z" style="fill:#263238"></path><path d="M250.08,288.71a194.88,194.88,0,0,0,33-33.17,127.67,127.67,0,0,1-33,33.17Z" style="fill:#263238"></path><path d="M251.06,282.05a175.31,175.31,0,0,0,29.71-28.93,109.07,109.07,0,0,1-29.71,28.93Z" style="fill:#263238"></path><path d="M251.53,276.46a193.46,193.46,0,0,0,26.4-24.7,102.76,102.76,0,0,1-26.4,24.7Z" style="fill:#263238"></path><path d="M273.49,251.11a82.65,82.65,0,0,1-20.85,19.67,207.3,207.3,0,0,0,20.85-19.67Z" style="fill:#263238"></path><path d="M253.32,264.27c4.18-3.5,10.38-8.86,14.51-12.52a55.58,55.58,0,0,1-14.51,12.52Z" style="fill:#263238"></path><path d="M250.52,318.61A43.75,43.75,0,0,1,239,307.28c3.73,3.66,7.83,7.64,11.53,11.33Z" style="fill:#263238"></path><path d="M250.52,312.78a54,54,0,0,1-14.37-14.91c4.47,5.14,9.44,10.19,14.37,14.91Z" style="fill:#263238"></path><path d="M250.65,307a58.15,58.15,0,0,1-16.23-17.52A150.33,150.33,0,0,0,250.65,307Z" style="fill:#263238"></path><path d="M250.65,301.16a59.93,59.93,0,0,1-17-18.67,135.4,135.4,0,0,0,17,18.67Z" style="fill:#263238"></path><path d="M250.65,295a60,60,0,0,1-16.94-18.61A135.79,135.79,0,0,0,250.65,295Z" style="fill:#263238"></path><path d="M251.14,288.6a59.23,59.23,0,0,1-16.63-18.15,143.85,143.85,0,0,0,16.63,18.15Z" style="fill:#263238"></path><path d="M236,265.33a120.4,120.4,0,0,0,15.18,16.81A49.93,49.93,0,0,1,236,265.33Z" style="fill:#263238"></path><path d="M252,277a40.86,40.86,0,0,1-13.77-16.21A88.81,88.81,0,0,0,252,277Z" style="fill:#263238"></path><path d="M252.64,271.78a36.1,36.1,0,0,1-11.3-14.6,98,98,0,0,0,11.3,14.6Z" style="fill:#263238"></path><path d="M254.25,265.37a28.24,28.24,0,0,1-8.52-9.9c2.82,3.32,5.9,6.82,8.52,9.9Z" style="fill:#263238"></path><path d="M251.44,477.2h-.59a3.71,3.71,0,0,1-3.66-3.08L237,416.1l2-.35,10.22,58a1.71,1.71,0,0,0,1.69,1.42h.59a1.72,1.72,0,0,0,1.69-1.42l10.21-58,2,.35-10.21,58A3.73,3.73,0,0,1,251.44,477.2Z" style="fill:#263238"></path><path d="M298.84,377l-10.12,49.4a8.5,8.5,0,0,1-3.42,5.38l-9.74,6.62a6.5,6.5,0,0,1-3.65,1.14H230.38a6.45,6.45,0,0,1-3.64-1.14L217,431.76a8.5,8.5,0,0,1-3.42-5.38L203.45,377Z" style="fill:#85BEEC"></path><polygon points="295.53 393.13 294.08 400.23 208.78 403.03 208.05 399.44 295.53 393.13" style="fill:#fff;opacity:0.4"></polygon><polygon points="297.35 384.25 296.59 387.96 207.02 394.42 205.56 387.28 297.35 384.25" style="fill:#fff;opacity:0.4"></polygon><polygon points="293.02 405.38 292.23 409.26 211.25 415.09 209.82 408.13 293.02 405.38" style="fill:#fff;opacity:0.4"></polygon><path d="M298.83,377l-10.11,49.4a8.46,8.46,0,0,1-3.42,5.38l-9.74,6.62a6.48,6.48,0,0,1-3.65,1.14H230.38a6.45,6.45,0,0,1-3.64-1.14L217,431.76a8.1,8.1,0,0,1-3-4c4.93,1.61,11.24,3.51,13.86,3.66,4.62.26,27.91,0,32.19,0,2.26,0,12.12-9,15-11.11,2.16-1.59,7.55-29.43,10.11-43.3Z" style="opacity:0.1"></path><path d="M208.11,477.06a3.71,3.71,0,0,1-3.7-4.1l6-57.27,2,.21-6,57.27a1.7,1.7,0,0,0,1.71,1.89,1.73,1.73,0,0,0,1.56-1l27-58.68,1.82.83-27,58.69A3.72,3.72,0,0,1,208.11,477.06Z" style="fill:#263238"></path><path d="M294.18,477.06a3.73,3.73,0,0,1-3.38-2.16l-27-58.69,1.82-.83,27,58.68a1.71,1.71,0,0,0,3.26-.89l-6-57.27,2-.21,6,57.27a3.71,3.71,0,0,1-3.69,4.1Z" style="fill:#263238"></path><rect x="209.88" y="414.79" width="82.53" height="2" style="fill:#263238"></rect></g></svg>
