<?xml version="1.0" encoding="UTF-8"?>
<svg id="Layer_1" data-name="Layer 1" xmlns="http://www.w3.org/2000/svg" viewBox="0 0 1463.08 1391.83">
  <defs>
    <style>
      .cls-1 {
        fill: none;
      }

      .cls-2 {
        fill: #ffc200;
      }

      .cls-3 {
        fill: #ffec00;
      }
    </style>
  </defs>
  <path class="cls-3" d="M1336.81,892.59c-234.3-76.13-156.91-196.68,126.27-196.68-283.18,0-360.56-120.54-126.26-196.68-234.3,76.13-242.53-66.9-13.43-233.36-229.1,166.47-362.65,114.52-217.89-84.76C960.74,380.39,870.12,269.39,957.65,0c-87.53,269.39-226.11,305.96-226.11,59.67,0,246.29-138.58,209.72-226.11-59.67,87.52,269.39-3.1,380.39-147.86,181.11,144.76,199.28,11.22,251.23-217.89,84.76,229.1,166.47,220.87,309.49-13.42,233.36,234.3,76.13,156.91,196.68-126.27,196.68,283.18,0,360.56,120.54,126.26,196.68,234.3-76.13,242.53,66.9,13.43,233.36,229.1-166.46,362.65-114.51,217.89,84.77,144.76-199.28,235.38-88.27,147.85,181.11,87.53-269.39,226.11-305.96,226.11-59.67,0-246.29,138.58-209.71,226.11,59.67-87.53-269.39,3.1-380.39,147.86-181.11-144.76-199.28-11.21-251.23,217.89-84.76-229.1-166.47-220.88-309.49,13.42-233.36M730.97,1022.53c-180.07,0-326.06-145.98-326.06-326.05s145.98-326.06,326.06-326.06,326.05,145.98,326.05,326.06-145.98,326.05-326.05,326.05"/>
  <path class="cls-2" d="M1174.39,695.91c-171.42,0-129.08-101.94,69.09-166.33-198.17,64.39-292.31,6.8-153.61-93.95-138.71,100.75-164.43-6.56-41.97-175.1-122.46,168.53-232.45,177.16-179.46,14.08-52.99,163.08-136.9,91.47-136.9-116.85,0,208.31-83.9,279.93-136.9,116.85,52.99,163.08-57,154.45-179.46-14.08,122.46,168.53,96.74,275.85-41.97,175.1,138.71,100.75,44.56,158.34-153.61,93.95,198.17,64.39,240.51,166.33,69.09,166.33,171.42,0,129.08,101.94-69.09,166.33,198.17-64.39,292.31-6.8,153.61,93.95,138.71-100.75,164.43,6.56,41.97,175.1,122.46-168.53,232.45-177.16,179.46-14.08,52.99-163.08,136.9-91.47,136.9,116.85,0-208.31,83.91-279.93,136.9-116.85-52.99-163.08,57-154.45,179.46,14.08-122.46-168.53-96.74-275.85,41.97-175.1-138.71-100.75-44.56-158.34,153.61-93.96-198.17-64.38-240.51-166.33-69.09-166.33M730.97,1016.88c-176.95,0-320.4-143.45-320.4-320.4s143.45-320.4,320.4-320.4,320.4,143.45,320.4,320.4-143.45,320.4-320.4,320.4"/>
  <path class="cls-2" d="M1040.08,696.48c0,170.71-138.39,309.1-309.1,309.1s-309.1-138.39-309.1-309.1,138.39-309.1,309.1-309.1,309.1,138.39,309.1,309.1"/>
  <rect class="cls-1" width="1463.08" height="1391.83"/>
</svg>